<svg xmlns="http://www.w3.org/2000/svg" xmlns:xlink="http://www.w3.org/1999/xlink" version="1.1" x="0px" y="0px" viewBox="0 0 100 125" enable-background="new 0 0 100 100" xml:space="preserve" fill="#fff"><path d="M96.944,59.89l-0.79-0.37c0-1.58-1.975-2.715-1.975-2.715c-1.186-1.58-15.009-2.268-15.009-2.268  C71.666,49.601,67.716,50,67.716,50H27.033c-7.504,1-11.06,4.933-11.06,4.933l-7.109,0.985c-2.37,0-2.37,3.553-2.37,3.553  c-0.79,0.396-0.395,3.357-0.395,3.357c0.328,0.657,5.835,1.721,7.688,2.062c-0.118-0.403-0.184-0.829-0.184-1.271  c0-2.51,2.034-4.543,4.542-4.543c2.509,0,4.542,2.033,4.542,4.543c0,0.481-0.076,0.945-0.216,1.382h60.074  c-0.14-0.437-0.216-0.9-0.216-1.382c0-2.51,2.033-4.543,4.542-4.543c2.51,0,4.543,2.033,4.543,4.543  c0,0.481-0.076,0.945-0.216,1.382h0.216l4.739-1.37C97.734,63.234,96.944,59.89,96.944,59.89z M31,56c0,0-9.944,0-9.991,0  c-0.479,0,0.572-2.468,0.691-2.609c1.119-1.336,2.999-1.68,4.634-1.899C26.745,51.437,31,50.965,31,51C31,51.005,31,56,31,56z   M32.167,56c0,0-0.395-4-0.395-5h19.354c0,0,0.791,3,0.791,5H32.167z M65.347,56H53.892c0,0-0.395-5-1.186-5h11.851  C64.557,51,65.74,55,65.347,56z M67.716,56c0-2-1.579-4.937-1.579-4.937C74.036,50.668,77.986,56,77.986,56H67.716z M92,60v-2h2.97  c0.79,0,0.79,2,0.79,2H92z"/><path d="M18,60c-2.208,0-4,1.79-4,4s1.792,4,4,4s4-1.79,4-4S20.208,60,18,60z M18,67c-1.657,0-3-1.343-3-3s1.343-3,3-3s3,1.343,3,3  S19.657,67,18,67z"/><path d="M87,60c-2.209,0-4,1.79-4,4s1.791,4,4,4s4-1.79,4-4S89.209,60,87,60z M87,67c-1.656,0-3-1.343-3-3s1.344-3,3-3s3,1.343,3,3  S88.656,67,87,67z"/></svg>