<svg width="201" height="47" viewBox="0 0 201 47" fill="none" xmlns="http://www.w3.org/2000/svg">
<path d="M73.3792 39.752C73.325 39.596 73.325 39.492 73.325 39.336C73.325 39.18 73.325 39.076 73.325 38.972C73.325 38.868 73.325 38.764 73.325 38.608C73.325 38.452 73.3792 38.348 73.3792 38.192H79.9332C79.9873 38.296 79.9873 38.4 79.9873 38.556C79.9873 38.712 79.9873 38.816 79.9873 38.92C79.9873 39.232 79.879 39.44 79.7165 39.544C79.554 39.648 79.2832 39.752 78.904 39.752H78.5249C78.4166 39.752 78.3082 39.752 78.0916 39.752C77.8749 39.752 77.7666 39.752 77.6582 39.752H75.5458C75.4375 39.752 75.3291 39.752 75.1125 39.752C74.95 39.752 74.7875 39.752 74.6791 39.752H73.3792ZM75.6 40.584C75.6 40.428 75.6 40.272 75.6 40.168C75.6 40.064 75.6 39.908 75.6 39.752V38.972H77.7124V39.752C77.7124 39.908 77.7124 40.064 77.7124 40.168C77.7124 40.272 77.7124 40.428 77.7124 40.584V46.148C77.5499 46.2 77.3332 46.2 77.1708 46.2C77.0083 46.2 76.7916 46.2 76.6833 46.2C76.5027 46.2 76.3402 46.2 76.1958 46.2C76.0333 46.2 75.8166 46.148 75.6541 46.148V40.584H75.6Z" fill="#F59C1A"/>
<path fill-rule="evenodd" clip-rule="evenodd" d="M80.529 42.144C80.529 41.312 80.6915 40.584 80.9623 39.96C81.2331 39.336 81.6665 38.868 82.2623 38.504C82.8581 38.14 83.5622 37.984 84.4831 37.984C85.3497 37.984 86.108 38.14 86.7038 38.504C87.2997 38.868 87.733 39.336 88.0038 39.96C88.2746 40.584 88.4371 41.312 88.4371 42.144C88.4371 42.976 88.2746 43.704 88.0038 44.328C87.733 44.952 87.2997 45.42 86.7038 45.784C86.108 46.148 85.4039 46.304 84.4831 46.304C83.6164 46.304 82.8581 46.148 82.2623 45.784C81.6665 45.42 81.2331 44.952 80.9623 44.328C80.6915 43.704 80.529 42.976 80.529 42.144ZM82.7498 42.144C82.7498 42.456 82.7498 42.768 82.8039 43.08C82.8581 43.392 82.9123 43.704 83.0206 43.964C83.1289 44.224 83.2914 44.432 83.5622 44.64C83.7789 44.796 84.1039 44.9 84.4831 44.9C84.8622 44.9 85.1872 44.796 85.4039 44.64C85.6205 44.484 85.783 44.276 85.8914 43.964C85.9997 43.704 86.108 43.392 86.108 43.08C86.1622 42.768 86.1622 42.456 86.1622 42.144C86.1622 41.832 86.1622 41.52 86.108 41.208C86.0539 40.896 85.9997 40.584 85.8914 40.324C85.783 40.064 85.6205 39.856 85.4039 39.648C85.1872 39.492 84.8622 39.388 84.4831 39.388C84.1039 39.388 83.7789 39.492 83.5622 39.648C83.3456 39.804 83.1831 40.012 83.0206 40.324C82.9123 40.584 82.8039 40.896 82.8039 41.208C82.7498 41.572 82.7498 41.884 82.7498 42.144Z" fill="#F59C1A"/>
<path d="M97.1578 43.236C97.1578 43.912 96.9953 44.432 96.7244 44.9C96.4536 45.368 96.0203 45.732 95.5328 45.94C94.9911 46.2 94.3412 46.304 93.5828 46.304C92.8245 46.304 92.1745 46.2 91.6329 45.94C91.0912 45.68 90.7121 45.316 90.4413 44.9C90.1704 44.432 90.0079 43.86 90.0079 43.236V38.192L90.1163 38.14H90.8746C91.2537 38.14 91.5787 38.244 91.7954 38.4C92.0121 38.608 92.1204 38.868 92.1204 39.284V43.236C92.1204 43.756 92.2287 44.172 92.4454 44.432C92.662 44.692 93.0412 44.848 93.5828 44.848C94.1245 44.848 94.5037 44.692 94.7203 44.432C94.937 44.172 95.0453 43.756 95.0453 43.236V38.192C95.2078 38.14 95.4245 38.14 95.587 38.14C95.7314 38.14 95.8939 38.14 96.0745 38.14C96.1828 38.14 96.3453 38.14 96.5619 38.14C96.7786 38.14 96.9411 38.192 97.1578 38.192V43.236Z" fill="#F59C1A"/>
<path d="M105.824 40.636C105.824 41 105.716 41.364 105.553 41.624C105.391 41.936 105.174 42.144 104.958 42.352C104.741 42.56 104.47 42.664 104.199 42.768C104.47 42.82 104.633 42.976 104.795 43.184C104.958 43.392 105.066 43.6 105.174 43.86L105.553 44.848C105.608 45.056 105.716 45.212 105.824 45.316C105.933 45.472 106.041 45.576 106.203 45.68C106.041 45.836 105.878 45.94 105.608 46.096C105.319 46.2 105.048 46.252 104.795 46.252C104.416 46.252 104.145 46.148 103.983 45.992C103.82 45.836 103.658 45.524 103.495 45.16L103.008 43.964C102.953 43.756 102.791 43.6 102.683 43.444C102.52 43.288 102.249 43.236 101.924 43.236H100.516V41.832C100.66 41.832 100.877 41.832 101.166 41.832C101.437 41.832 101.653 41.832 101.87 41.832C102.087 41.832 102.249 41.832 102.358 41.832C102.683 41.832 102.953 41.78 103.116 41.676C103.278 41.572 103.441 41.416 103.495 41.26C103.549 41.104 103.603 40.896 103.603 40.688C103.603 40.48 103.549 40.324 103.495 40.116C103.441 39.96 103.278 39.804 103.116 39.7C102.953 39.596 102.683 39.544 102.358 39.544C102.195 39.544 102.087 39.544 101.924 39.544C101.762 39.544 101.599 39.544 101.383 39.544V46.2C101.22 46.252 101.003 46.252 100.841 46.252C100.678 46.252 100.462 46.252 100.353 46.252C100.245 46.252 100.083 46.252 99.866 46.252C99.6493 46.252 99.4868 46.2 99.3243 46.2V38.296L99.4327 38.192C99.9743 38.192 100.516 38.192 101.058 38.14C101.599 38.14 102.087 38.14 102.574 38.14C103.17 38.14 103.712 38.244 104.199 38.4C104.687 38.556 105.066 38.868 105.337 39.232C105.716 39.596 105.824 40.064 105.824 40.636Z" fill="#F59C1A"/>
<path d="M107.016 45.472C107.016 45.212 107.124 44.952 107.287 44.692C107.449 44.432 107.612 44.224 107.828 44.068C108.207 44.276 108.641 44.432 109.074 44.588C109.507 44.744 109.995 44.848 110.482 44.848C110.862 44.848 111.132 44.744 111.295 44.588C111.457 44.432 111.566 44.224 111.566 44.068C111.566 43.964 111.512 43.808 111.403 43.652C111.295 43.496 111.078 43.34 110.699 43.184L109.128 42.612C108.587 42.404 108.153 42.144 107.774 41.78C107.395 41.416 107.233 41 107.233 40.428C107.233 39.96 107.395 39.492 107.666 39.128C107.937 38.764 108.316 38.452 108.803 38.296C109.273 38.088 109.814 37.984 110.428 37.984C111.078 37.984 111.62 38.036 112.162 38.192C112.703 38.348 113.137 38.504 113.516 38.66C113.516 38.92 113.407 39.18 113.299 39.44C113.191 39.6827 113.028 39.8907 112.812 40.064C112.487 39.908 112.107 39.804 111.62 39.7C111.187 39.596 110.753 39.544 110.428 39.544C110.049 39.544 109.778 39.596 109.616 39.752C109.453 39.908 109.399 40.064 109.399 40.22C109.399 40.376 109.453 40.48 109.562 40.636C109.67 40.74 109.887 40.844 110.157 41L111.782 41.572C112.216 41.728 112.595 41.936 112.866 42.144C113.137 42.352 113.407 42.612 113.516 42.924C113.678 43.236 113.732 43.548 113.732 43.86C113.732 44.328 113.624 44.744 113.353 45.16C113.082 45.524 112.703 45.836 112.216 46.044C111.746 46.252 111.096 46.356 110.266 46.356C109.724 46.356 109.182 46.304 108.587 46.148C108.045 45.94 107.503 45.732 107.016 45.472Z" fill="#F59C1A"/>
<path d="M124.674 41.208C124.945 41.208 125.161 41.208 125.432 41.156C125.685 41.0867 125.901 41.0347 126.082 41C126.19 41.104 126.245 41.208 126.299 41.364C126.353 41.52 126.353 41.676 126.353 41.832C126.353 42.144 126.245 42.352 126.028 42.508C125.811 42.664 125.486 42.716 125.107 42.716H121.965C121.64 42.716 121.37 42.768 121.099 42.82C120.882 42.924 120.72 43.028 120.557 43.184C120.395 43.34 120.395 43.548 120.395 43.808C120.395 44.1547 120.503 44.4147 120.72 44.588C120.936 44.744 121.153 44.848 121.424 44.848C121.749 44.848 122.02 44.796 122.236 44.692C122.453 44.588 122.67 44.484 122.778 44.38V43.34C122.778 43.132 122.778 42.872 122.778 42.612C122.778 42.352 122.778 42.04 122.832 41.78H124.728C124.728 42.04 124.782 42.352 124.782 42.612C124.782 42.872 124.782 43.132 124.782 43.34V44.172C124.782 44.4147 124.782 44.7267 124.782 45.108C124.782 45.472 124.836 45.784 124.836 46.044C124.728 46.096 124.565 46.096 124.403 46.148C124.24 46.148 124.078 46.148 123.861 46.148C123.681 46.148 123.518 46.148 123.374 46.148C123.211 46.148 123.049 46.096 122.94 46.096L122.778 45.576C122.507 45.784 122.236 45.94 121.857 46.044C121.478 46.148 121.099 46.252 120.72 46.252C120.178 46.252 119.691 46.148 119.311 45.94C118.932 45.732 118.661 45.472 118.445 45.108C118.228 44.744 118.174 44.38 118.174 43.964C118.174 43.496 118.282 43.132 118.499 42.768C118.716 42.456 119.041 42.144 119.366 41.988C119.691 41.78 120.07 41.728 120.449 41.728V41.936C120.07 41.936 119.745 41.832 119.474 41.676C119.203 41.52 118.986 41.312 118.77 41C118.607 40.74 118.499 40.428 118.499 40.064C118.499 39.648 118.607 39.284 118.878 38.972C119.095 38.66 119.42 38.4 119.853 38.244C120.286 38.088 120.774 37.984 121.37 37.984C121.911 37.984 122.399 38.036 122.886 38.088C123.374 38.14 123.807 38.244 124.186 38.348C124.186 38.556 124.132 38.816 124.078 39.076C123.97 39.336 123.861 39.544 123.699 39.7C123.428 39.596 123.103 39.544 122.778 39.492C122.453 39.44 122.128 39.388 121.803 39.388C121.424 39.388 121.153 39.492 120.99 39.648C120.828 39.804 120.72 40.012 120.72 40.272C120.72 40.584 120.828 40.792 121.045 40.948C121.261 41.104 121.586 41.156 122.02 41.156H124.674V41.208Z" fill="#F59C1A"/>
<path d="M130.036 39.752C129.982 39.596 129.982 39.492 129.982 39.336C129.982 39.18 129.982 39.076 129.982 38.972C129.982 38.868 129.982 38.764 129.982 38.608C129.982 38.452 130.036 38.348 130.036 38.192H136.59C136.644 38.296 136.644 38.4 136.644 38.556C136.644 38.712 136.644 38.816 136.644 38.92C136.644 39.232 136.536 39.44 136.373 39.544C136.211 39.648 135.94 39.752 135.561 39.752H135.182C135.073 39.752 134.965 39.752 134.748 39.752C134.532 39.752 134.423 39.752 134.315 39.752H132.203C132.094 39.752 131.986 39.752 131.769 39.752C131.607 39.752 131.444 39.752 131.336 39.752H130.036ZM132.257 40.584C132.257 40.428 132.257 40.272 132.257 40.168C132.257 40.064 132.257 39.908 132.257 39.752V38.972H134.369V39.752C134.369 39.908 134.369 40.064 134.369 40.168C134.369 40.272 134.369 40.428 134.369 40.584V46.148C134.207 46.2 133.99 46.2 133.828 46.2C133.665 46.2 133.449 46.2 133.34 46.2C133.16 46.2 132.997 46.2 132.853 46.2C132.69 46.2 132.474 46.148 132.311 46.148V40.584H132.257Z" fill="#F59C1A"/>
<path d="M144.444 40.636C144.444 41 144.336 41.364 144.173 41.624C144.011 41.936 143.794 42.144 143.577 42.352C143.361 42.56 143.09 42.664 142.819 42.768C143.09 42.82 143.252 42.976 143.415 43.184C143.577 43.392 143.686 43.6 143.794 43.86L144.173 44.848C144.227 45.056 144.336 45.212 144.444 45.316C144.552 45.472 144.661 45.576 144.823 45.68C144.661 45.836 144.498 45.94 144.227 46.096C143.939 46.2 143.668 46.252 143.415 46.252C143.036 46.252 142.765 46.148 142.602 45.992C142.44 45.836 142.277 45.524 142.115 45.16L141.627 43.964C141.573 43.756 141.411 43.6 141.302 43.444C141.14 43.288 140.869 43.236 140.544 43.236H139.136V41.832C139.28 41.832 139.497 41.832 139.786 41.832C140.057 41.832 140.273 41.832 140.49 41.832C140.707 41.832 140.869 41.832 140.977 41.832C141.302 41.832 141.573 41.78 141.736 41.676C141.898 41.572 142.061 41.416 142.115 41.26C142.169 41.104 142.223 40.896 142.223 40.688C142.223 40.48 142.169 40.324 142.115 40.116C142.061 39.96 141.898 39.804 141.736 39.7C141.573 39.596 141.302 39.544 140.977 39.544C140.815 39.544 140.707 39.544 140.544 39.544C140.382 39.544 140.219 39.544 140.002 39.544V46.2C139.84 46.252 139.623 46.252 139.461 46.252C139.298 46.252 139.082 46.252 138.973 46.252C138.865 46.252 138.703 46.252 138.486 46.252C138.269 46.252 138.107 46.2 137.944 46.2V38.296L138.053 38.192C138.594 38.192 139.136 38.192 139.678 38.14C140.219 38.14 140.707 38.14 141.194 38.14C141.79 38.14 142.332 38.244 142.819 38.4C143.307 38.556 143.686 38.868 143.957 39.232C144.282 39.6133 144.444 40.0813 144.444 40.636Z" fill="#F59C1A"/>
<path fill-rule="evenodd" clip-rule="evenodd" d="M148.452 38.192C148.615 38.192 148.831 38.14 149.048 38.14C149.265 38.14 149.481 38.14 149.644 38.14C149.806 38.14 150.023 38.14 150.24 38.14C150.456 38.14 150.673 38.192 150.836 38.192L153.652 46.044C153.49 46.096 153.327 46.148 153.111 46.2C152.894 46.252 152.677 46.252 152.461 46.252C152.136 46.252 151.865 46.2 151.702 46.044C151.54 45.888 151.377 45.628 151.215 45.212L150.998 44.484C151.215 44.484 152.244 44.484 152.298 44.484L151.756 43.028C151.702 43.028 150.619 43.028 150.511 43.028L150.294 42.248C150.186 41.936 150.077 41.52 149.915 41.104C149.752 40.688 149.644 40.272 149.536 39.856H149.481C149.427 40.064 149.373 40.324 149.319 40.584C149.265 40.844 149.156 41.104 149.102 41.364C148.994 41.624 148.94 41.884 148.886 42.092L148.561 43.028C148.29 43.028 147.531 43.028 147.477 43.028L146.827 44.484C146.882 44.484 148.019 44.484 148.073 44.484L147.531 46.148C147.423 46.2 147.261 46.2 147.098 46.2C146.918 46.2 146.755 46.2 146.611 46.2C146.448 46.2 146.286 46.2 146.069 46.148C145.852 46.096 145.69 46.096 145.582 46.044L145.527 45.94L148.452 38.192ZM150.456 44.484C150.511 44.484 150.619 44.484 150.673 44.484C150.781 44.484 150.836 44.484 150.944 44.484C150.944 44.484 150.962 44.484 150.998 44.484L150.511 43.028C150.456 43.028 150.348 43.028 150.294 43.028C150.24 43.028 149.156 43.028 149.102 43.028C149.048 43.028 148.94 43.028 148.886 43.028C148.831 43.028 148.777 43.028 148.669 43.028C148.669 43.028 148.633 43.028 148.561 43.028L148.073 44.484C148.109 44.484 148.127 44.484 148.127 44.484C148.181 44.484 148.29 44.484 148.344 44.484C148.452 44.484 150.402 44.484 150.456 44.484Z" fill="#F59C1A"/>
<path d="M159.394 38.192C159.556 38.14 159.719 38.14 159.881 38.14C160.044 38.14 160.206 38.14 160.315 38.14C160.423 38.14 160.585 38.14 160.802 38.192C160.964 38.192 161.181 38.244 161.289 38.296L161.398 38.4L158.906 46.2C158.69 46.2 158.419 46.252 158.094 46.252C157.769 46.252 157.498 46.252 157.227 46.252C156.848 46.252 156.523 46.2 156.306 46.096C156.09 45.992 155.927 45.784 155.819 45.42L153.598 38.4C153.815 38.348 153.977 38.244 154.194 38.192C154.41 38.14 154.627 38.088 154.844 38.088C155.169 38.088 155.385 38.14 155.602 38.296C155.765 38.452 155.927 38.66 155.981 39.024L157.01 42.352C157.065 42.56 157.119 42.82 157.227 43.08C157.335 43.34 157.335 43.548 157.39 43.808C157.444 44.068 157.498 44.276 157.552 44.536C157.552 44.64 157.606 44.692 157.715 44.692L159.394 38.192Z" fill="#F59C1A"/>
<path d="M162.806 38.296L162.914 38.192H164.919V39.752C164.919 39.908 164.919 40.064 164.919 40.168C164.919 40.272 164.919 40.428 164.919 40.584V43.808C164.919 43.964 164.919 44.12 164.919 44.224C164.919 44.328 164.919 44.484 164.919 44.64V46.2H164.052C163.673 46.2 163.402 46.096 163.185 45.888C162.969 45.68 162.86 45.42 162.86 45.108V38.296H162.806ZM168.602 38.192C168.656 38.348 168.656 38.452 168.656 38.608C168.656 38.712 168.656 38.868 168.656 38.972C168.656 39.076 168.656 39.232 168.602 39.336C168.548 39.492 168.548 39.648 168.493 39.752H165.785C165.677 39.752 165.514 39.752 165.298 39.752C165.081 39.752 164.864 39.752 164.648 39.752C164.431 39.752 164.269 39.752 164.106 39.752V38.192H168.602ZM167.789 41.416C167.843 41.52 167.898 41.676 167.898 41.832C167.898 41.988 167.898 42.092 167.898 42.196C167.898 42.3 167.898 42.404 167.898 42.56C167.898 42.716 167.843 42.82 167.789 42.976H165.785C165.677 42.976 165.514 42.976 165.298 42.976C165.081 42.976 164.864 42.976 164.648 42.976C164.431 42.976 164.269 42.976 164.106 42.976V41.52C164.269 41.52 164.431 41.52 164.648 41.52C164.864 41.52 165.081 41.52 165.298 41.52C165.514 41.52 165.677 41.52 165.785 41.52H167.789V41.416ZM168.927 44.64C168.927 45.16 168.818 45.524 168.656 45.784C168.493 46.044 168.114 46.2 167.519 46.2H164.16V44.692C164.431 44.692 164.702 44.692 164.973 44.64C165.244 44.588 165.514 44.64 165.839 44.64H168.927Z" fill="#F59C1A"/>
<path d="M172.773 46.2H171.906C171.527 46.2 171.256 46.096 170.985 45.888C170.768 45.68 170.66 45.42 170.66 45.108V38.192L170.768 38.14H171.527C171.906 38.14 172.231 38.244 172.448 38.4C172.664 38.608 172.773 38.868 172.773 39.284V46.2ZM176.293 44.588C176.293 45.1427 176.185 45.5587 175.968 45.836C175.752 46.096 175.372 46.2 174.831 46.2H171.852L170.714 44.848C171.31 44.744 171.852 44.692 172.448 44.64C172.989 44.588 173.531 44.588 174.018 44.588H176.293Z" fill="#F59C1A"/>
<path d="M177.106 45.472C177.106 45.212 177.214 44.952 177.377 44.692C177.539 44.432 177.702 44.224 177.918 44.068C178.297 44.276 178.731 44.432 179.164 44.588C179.597 44.744 180.085 44.848 180.572 44.848C180.952 44.848 181.222 44.744 181.385 44.588C181.547 44.432 181.656 44.224 181.656 44.068C181.656 43.964 181.601 43.808 181.493 43.652C181.385 43.496 181.168 43.34 180.789 43.184L179.218 42.612C178.677 42.404 178.243 42.144 177.864 41.78C177.485 41.416 177.322 41 177.322 40.428C177.322 39.96 177.485 39.492 177.756 39.128C178.027 38.764 178.406 38.452 178.893 38.296C179.399 38.088 179.94 37.984 180.518 37.984C181.168 37.984 181.71 38.036 182.251 38.192C182.793 38.348 183.226 38.504 183.606 38.66C183.606 38.92 183.497 39.18 183.389 39.44C183.281 39.6827 183.118 39.8907 182.901 40.064C182.576 39.908 182.197 39.804 181.71 39.7C181.277 39.596 180.843 39.544 180.518 39.544C180.139 39.544 179.868 39.596 179.706 39.752C179.543 39.908 179.489 40.064 179.489 40.22C179.489 40.376 179.543 40.48 179.652 40.636C179.76 40.74 179.977 40.844 180.247 41L181.872 41.572C182.306 41.728 182.685 41.936 182.956 42.144C183.226 42.352 183.497 42.612 183.606 42.924C183.768 43.236 183.822 43.548 183.822 43.86C183.822 44.328 183.714 44.744 183.443 45.16C183.172 45.524 182.793 45.836 182.306 46.044C181.836 46.252 181.186 46.356 180.356 46.356C179.814 46.356 179.272 46.304 178.677 46.148C178.135 45.94 177.593 45.732 177.106 45.472Z" fill="#F59C1A"/>
<path d="M189.564 46.2H189.076C188.86 46.2 188.697 46.148 188.589 46.044C188.48 45.94 188.426 45.784 188.426 45.628V41.832L188.48 41.78H188.914C189.13 41.78 189.293 41.832 189.401 41.936C189.51 42.04 189.564 42.196 189.564 42.456V46.2ZM191.514 45.316C191.514 45.628 191.46 45.888 191.351 45.992C191.243 46.148 191.026 46.2 190.755 46.2H189.13L188.48 45.472C188.805 45.42 189.13 45.368 189.401 45.368C189.672 45.368 189.997 45.316 190.268 45.316H191.514Z" fill="#F59C1A"/>
<path d="M193.572 46.2H193.085C192.868 46.2 192.705 46.148 192.597 46.044C192.489 45.94 192.435 45.784 192.435 45.628V41.832L192.489 41.78H192.922C193.139 41.78 193.301 41.832 193.41 41.936C193.518 42.04 193.572 42.196 193.572 42.456V46.2ZM195.522 45.316C195.522 45.628 195.468 45.888 195.359 45.992C195.251 46.148 195.034 46.2 194.764 46.2H193.139L192.489 45.472C192.814 45.42 193.139 45.368 193.41 45.368C193.68 45.368 194.005 45.316 194.276 45.316H195.522Z" fill="#F59C1A"/>
<path d="M198.88 43.496C198.88 43.34 198.88 43.132 198.826 42.976C198.772 42.82 198.718 42.716 198.609 42.612C198.501 42.508 198.339 42.456 198.122 42.456C197.797 42.456 197.58 42.56 197.472 42.82C197.364 43.08 197.255 43.444 197.255 43.912C197.255 44.38 197.364 44.692 197.526 44.952C197.689 45.16 197.959 45.316 198.284 45.316C198.555 45.316 198.772 45.264 198.989 45.16C199.205 45.056 199.368 44.952 199.53 44.848C199.639 44.8827 199.747 44.9867 199.855 45.16C199.964 45.316 200.018 45.42 200.072 45.524C199.909 45.628 199.747 45.784 199.53 45.888C199.314 45.992 199.097 46.096 198.826 46.148C198.555 46.2 198.339 46.252 198.068 46.252C197.689 46.252 197.364 46.2 197.093 46.044C196.822 45.888 196.605 45.732 196.497 45.524C196.334 45.316 196.226 45.056 196.172 44.796C196.118 44.536 196.064 44.276 196.064 43.964C196.064 43.444 196.172 42.976 196.334 42.664C196.497 42.352 196.768 42.092 197.093 41.936C197.418 41.78 197.743 41.676 198.176 41.676C198.573 41.676 198.898 41.728 199.151 41.832C199.44 41.936 199.657 42.092 199.801 42.3C199.964 42.508 200.018 42.716 200.018 42.976C200.018 43.184 199.964 43.34 199.855 43.392C199.747 43.496 199.584 43.548 199.368 43.548C199.259 43.548 199.205 43.548 199.151 43.548C198.989 43.548 198.934 43.548 198.88 43.496Z" fill="#F59C1A"/>
<path fill-rule="evenodd" clip-rule="evenodd" d="M95.8036 15.728C95.8036 19.784 95.8036 22.956 95.8036 25.192C95.8036 26.8907 95.8036 28.0867 95.8036 28.78C95.8036 29.092 95.5328 29.352 95.2619 29.352C94.7203 29.404 93.7995 29.456 92.4995 29.56C90.7662 29.716 88.9788 29.768 87.083 29.768C85.7289 29.768 84.1581 29.664 82.4789 29.404C80.6373 29.144 79.1207 28.78 77.929 28.208C76.4124 27.532 75.1666 26.544 74.3 25.4C73.4875 24.308 73.0542 23.06 73 21.604C73.0542 20.044 73.5417 18.692 74.4083 17.548C75.3291 16.3 76.7916 15.312 78.7957 14.532C80.0957 14.012 81.7748 13.596 83.7247 13.284C84.8622 13.128 85.8913 12.972 86.9205 12.868C88.383 12.712 89.3579 12.66 89.8454 12.66C90.0079 12.66 90.1704 12.504 90.1162 12.296C89.2496 7.66799 83.0747 7.61599 83.0747 7.61599C82.4248 7.61599 81.7206 7.56399 80.9081 7.56399C80.6915 7.56399 80.4206 7.56399 80.204 7.56399C80.1498 7.56399 80.0415 7.56399 79.9332 7.56399C78.904 7.56399 77.9832 7.56399 77.2791 7.61599C76.5749 7.61599 76.0874 7.04399 76.1416 6.36799L76.5207 3.03999C76.5749 2.62399 76.8999 2.31199 77.2791 2.31199C77.5499 2.25999 77.8207 2.25999 78.1999 2.25999C78.7957 2.20799 79.554 2.20799 80.529 2.20799C83.2914 2.20799 85.6205 2.46799 87.4621 2.98799C89.3579 3.50799 90.9829 4.33999 92.2829 5.53599C93.4745 6.62799 94.3411 7.92799 94.8828 9.48799C95.4244 11.048 95.6953 13.076 95.8036 15.728ZM89.7371 16.352C79.1748 16.404 78.579 20.252 78.5249 20.876C78.5249 21.136 78.579 21.448 78.6332 21.76C79.8248 26.128 87.6788 25.556 89.6829 25.296C89.9537 25.244 90.1704 24.984 90.1704 24.724V16.716C90.1704 16.508 89.9537 16.352 89.7371 16.352Z" fill="#011160"/>
<path d="M171.527 13.96V16.924V17.444V20.928V21.656V24.828V29.664H168.764C168.548 29.664 168.385 29.664 168.223 29.612C167.681 29.508 167.139 29.248 166.706 28.832C166.056 28.26 165.731 27.584 165.731 26.752V24.932V21.708V20.928V17.444V16.924V14.948C165.731 13.5267 165.623 12.3307 165.406 11.36C165.189 10.372 164.864 9.592 164.431 8.968C163.998 8.344 163.348 7.876 162.589 7.616C161.831 7.356 160.91 7.2 159.881 7.2C159.556 7.148 159.231 7.148 158.852 7.148C158.058 7.148 157.191 7.2 156.252 7.304C155.385 7.408 154.681 7.512 154.248 7.564V16.924V17.444V20.928V21.292V29.664H148.452V21.292V20.876V17.392V16.872V3.404C149.752 3.092 151.377 2.78 153.436 2.468C155.44 2.156 157.715 2 160.206 2C160.531 2 160.802 2 161.073 2C162.698 2.104 164.052 2.416 165.244 2.832C166.814 3.404 168.06 4.236 168.981 5.276C169.902 6.316 170.552 7.616 170.931 9.072C171.31 10.528 171.473 12.14 171.527 13.96Z" fill="#011160"/>
<path d="M115.899 2.208V7.304C115.899 7.356 115.845 7.46 115.736 7.46H115.466H113.895H113.407C111.674 7.46 110.374 7.876 109.562 8.708C108.749 9.488 108.316 10.788 108.316 12.556V13.388V25.244V25.296C108.316 28.312 105.824 29.612 102.737 29.716C102.574 29.768 102.466 29.612 102.466 29.508V25.452V24.62V24.048V14.116C102.466 11.828 102.791 9.904 103.495 8.344C104.145 6.784 105.12 5.536 106.312 4.6C107.449 3.716 108.803 3.092 110.32 2.676C111.837 2.26 113.407 2.052 115.032 2.052H115.466H115.736C115.845 2.052 115.899 2.104 115.899 2.208Z" fill="#011160"/>
<path fill-rule="evenodd" clip-rule="evenodd" d="M200.18 15.728C200.18 19.784 200.18 22.956 200.18 25.192C200.18 26.8907 200.18 28.0867 200.18 28.78C200.18 29.092 199.909 29.352 199.639 29.352C199.097 29.404 198.176 29.456 196.876 29.56C195.143 29.716 193.355 29.768 191.46 29.768C190.105 29.768 188.535 29.664 186.856 29.404C185.014 29.144 183.497 28.78 182.306 28.208C180.789 27.532 179.543 26.544 178.677 25.4C177.864 24.308 177.431 23.06 177.377 21.604C177.431 20.044 177.918 18.692 178.785 17.548C179.706 16.3 181.168 15.312 183.172 14.532C184.472 14.012 186.151 13.596 188.101 13.284C189.239 13.128 190.268 12.972 191.297 12.868C192.76 12.712 193.735 12.66 194.222 12.66C194.385 12.66 194.547 12.504 194.493 12.296C193.626 7.66799 187.451 7.61599 187.451 7.61599C186.801 7.61599 186.097 7.56399 185.285 7.56399C185.068 7.56399 184.797 7.56399 184.581 7.56399C184.526 7.56399 184.418 7.56399 184.31 7.56399C183.281 7.56399 182.36 7.56399 181.656 7.61599C180.951 7.61599 180.464 7.04399 180.518 6.36799L180.897 3.03999C180.951 2.62399 181.276 2.31199 181.656 2.31199C181.926 2.25999 182.197 2.25999 182.576 2.25999C183.172 2.20799 183.931 2.20799 184.906 2.20799C187.668 2.20799 189.997 2.46799 191.839 2.98799C193.735 3.50799 195.359 4.33999 196.659 5.53599C197.851 6.62799 198.718 7.92799 199.259 9.48799C199.801 11.048 200.072 13.076 200.18 15.728ZM194.06 16.352C183.497 16.404 182.901 20.252 182.847 20.876C182.847 21.136 182.901 21.448 182.956 21.76C184.147 26.128 192.001 25.556 194.005 25.296C194.276 25.244 194.493 24.984 194.493 24.724V16.716C194.493 16.508 194.33 16.352 194.06 16.352Z" fill="#011160"/>
<path fill-rule="evenodd" clip-rule="evenodd" d="M142.494 15.936C142.494 16.248 142.494 16.612 142.494 17.028C142.44 17.236 142.44 17.444 142.44 17.6C142.44 17.86 142.169 18.12 141.844 18.12H124.295C124.295 18.12 124.349 18.744 124.565 19.576C124.62 19.784 124.728 19.992 124.782 20.2V20.252C125.811 23.06 129.061 27.168 139.515 23.788C139.786 23.684 140.057 23.84 140.111 24.1L140.707 27.428C140.815 27.896 140.544 28.364 140.057 28.52C139.84 28.572 139.623 28.676 139.407 28.728C138.829 28.8667 138.125 29.0227 137.294 29.196C136.536 29.352 135.669 29.456 134.748 29.56C133.954 29.664 133.142 29.716 132.311 29.716C130.09 29.664 128.14 29.352 126.461 28.728C124.674 28.052 123.157 27.116 122.02 25.92C120.828 24.7413 119.961 23.3373 119.42 21.708C118.824 20.096 118.553 18.328 118.553 16.404C118.553 14.116 118.932 12.192 119.636 10.476C120.34 8.812 121.315 7.408 122.507 6.264C123.699 5.12 125.053 4.288 126.624 3.716C128.086 3.196 129.549 2.936 131.011 2.884C134.586 2.988 137.403 4.08 139.461 6.16C141.573 8.344 142.657 11.62 142.494 15.936ZM136.265 13.752H137.132C137.132 13.752 137.186 13.752 137.186 13.7C137.186 12.92 137.023 12.192 136.807 11.464C136.536 10.736 136.211 10.06 135.723 9.54C135.507 9.332 135.29 9.124 135.019 8.916C135.019 8.864 134.965 8.864 134.965 8.864C134.64 8.656 134.315 8.448 133.936 8.292H133.882C131.065 6.94 128.574 8.032 127.544 8.604C127.274 8.812 127.111 8.916 127.111 8.916C126.786 9.176 126.515 9.436 126.245 9.696C125.703 10.268 125.324 10.892 125.053 11.62C124.728 12.296 124.565 13.024 124.457 13.752C124.457 13.804 124.511 13.804 124.511 13.804H136.265V13.752Z" fill="#011160"/>
<path d="M44.091 30.212H57.524C58.0657 30.212 58.5531 30.472 58.824 30.94L66.2446 43.316C66.8404 44.304 66.0821 45.604 64.8905 45.604H53.0283C52.3783 45.604 51.7825 45.292 51.4575 44.72L43.4952 31.252C43.1702 30.784 43.4952 30.212 44.091 30.212Z" fill="#F59C1A"/>
<path d="M19.8791 37.648L16.7375 42.9C15.8167 44.46 14.1376 45.396 12.296 45.396H0.487903C0.108746 45.396 -0.107909 45.032 0.0545874 44.72L24.9706 3.016C26.0539 1.144 28.1664 0 30.3872 0L41.4911 0.0520002C41.8702 0.0520002 42.0869 0.416 41.9244 0.728L30.3872 20.072C30.2788 20.124 30.1705 20.176 30.1163 20.228C29.1414 20.852 27.4622 24.024 26.7581 25.168C25.7831 25.376 20.3666 25.948 18.6875 26.104C17.875 26.208 17.9833 26.104 17.7125 26.676C17.4958 26.988 17.3333 27.248 17.1708 27.56C18.6875 28.08 23.5623 28.496 24.4832 29.016C23.9415 30.264 22.479 32.448 21.7207 34.008C20.9624 35.776 21.5582 35.1 19.6624 35.724C17.55 36.452 17.7125 36.192 17.4417 37.44C18.3625 37.388 19.175 37.492 19.8791 37.648Z" fill="#011160"/>
<path d="M38.3495 14.612H50.2117C50.5908 14.612 50.8617 15.028 50.645 15.34L33.9079 43.42C33.1496 44.72 31.6871 45.5 30.1705 45.5L17.0625 45.552L21.2332 38.584C21.8291 39.052 22.3707 39.676 22.8582 40.508C24.0498 39.884 23.5623 39.26 23.2915 37.856C22.7499 35.36 22.9124 36.972 25.2956 32.708C25.8373 31.876 26.2706 31.096 26.7581 30.264C27.1372 30.628 27.6789 31.148 28.0039 31.616L30.4413 34.424C30.8205 34.892 31.2538 35.36 31.6871 35.776C31.8496 35.62 32.4454 34.632 32.4454 34.476C32.4996 34.008 29.7372 28.132 29.358 27.248C28.9789 26.468 28.8705 26.676 29.3039 25.948C30.1705 24.492 31.633 22.62 31.7413 21.112L34.2871 16.848C35.1537 15.444 36.7245 14.56 38.3495 14.612Z" fill="#011160"/>
</svg>
