<svg width="359" height="66" viewBox="0 0 359 66" fill="none" xmlns="http://www.w3.org/2000/svg">
<path d="M199.274 41.7558H212.707C213.249 41.7558 213.736 42.0158 214.007 42.4838L221.428 54.8598C222.024 55.8478 221.265 57.1478 220.074 57.1478H208.211C207.562 57.1478 206.966 56.8358 206.641 56.2638L198.678 42.7958C198.353 42.3278 198.678 41.7558 199.274 41.7558Z" fill="#F59C1A"/>
<path d="M175.062 49.1918L171.921 54.4438C171 56.0038 169.321 56.9398 167.479 56.9398H155.671C155.292 56.9398 155.075 56.5758 155.238 56.2638L180.154 14.5598C181.237 12.6878 183.35 11.5438 185.57 11.5438L196.674 11.5958C197.053 11.5958 197.27 11.9598 197.108 12.2718L185.57 31.6158C185.462 31.6678 185.354 31.7198 185.3 31.7718C184.325 32.3958 182.645 35.5678 181.941 36.7118C180.966 36.9198 175.55 37.4918 173.871 37.6478C173.058 37.7518 173.167 37.6478 172.896 38.2198C172.679 38.5318 172.517 38.7918 172.354 39.1038C173.871 39.6238 178.746 40.0398 179.666 40.5598C179.125 41.8078 177.662 43.9918 176.904 45.5518C176.146 47.3198 176.741 46.6438 174.846 47.2678C172.733 47.9958 172.896 47.7358 172.625 48.9838C173.546 48.9318 174.358 49.0358 175.062 49.1918Z" fill="#011160"/>
<path d="M193.533 26.1558H205.395C205.774 26.1558 206.045 26.5718 205.828 26.8838L189.091 54.9638C188.333 56.2638 186.87 57.0438 185.354 57.0438L172.246 57.0958L176.416 50.1278C177.012 50.5958 177.554 51.2198 178.041 52.0518C179.233 51.4278 178.746 50.8038 178.475 49.3998C177.933 46.9038 178.096 48.5158 180.479 44.2518C181.021 43.4198 181.454 42.6398 181.941 41.8078C182.32 42.1718 182.862 42.6918 183.187 43.1598L185.625 45.9678C186.004 46.4358 186.437 46.9038 186.87 47.3198C187.033 47.1638 187.629 46.1758 187.629 46.0198C187.683 45.5518 184.92 39.6758 184.541 38.7918C184.162 38.0118 184.054 38.2198 184.487 37.4918C185.354 36.0358 186.816 34.1638 186.925 32.6558L189.47 28.3918C190.337 26.9878 191.908 26.1038 193.533 26.1558Z" fill="#011160"/>
<path fill-rule="evenodd" clip-rule="evenodd" d="M243.311 55.7438C243.311 54.9638 243.852 54.5478 244.448 54.5478C245.206 54.5478 245.586 55.1198 245.586 55.7438C245.586 56.3678 245.206 56.9918 244.448 56.9918H242.606C242.336 56.9918 242.011 57.1998 242.011 57.6158V58.2398L241.469 57.9278V57.5638C241.469 56.7838 242.011 56.3678 242.606 56.3678H243.311V55.7438ZM244.448 56.4198C244.827 56.4198 245.044 56.1078 245.044 55.7958C245.044 55.4838 244.827 55.1718 244.448 55.1718C244.177 55.1718 243.852 55.3798 243.852 55.7958V56.4198H244.448ZM246.506 56.4198H247.048V56.9918H246.506V56.4198ZM249.865 55.7438C249.865 54.9638 250.406 54.5478 251.002 54.5478C251.76 54.5478 252.14 55.1198 252.14 55.7438C252.14 56.3678 251.76 56.9918 251.002 56.9918H249.16C248.89 56.9918 248.565 57.1998 248.565 57.6158V58.2398L248.023 57.9278V57.5638C248.023 56.7838 248.565 56.3678 249.16 56.3678H249.865V55.7438ZM251.002 56.4198C251.381 56.4198 251.598 56.1078 251.598 55.7958C251.598 55.4838 251.381 55.1718 251.002 55.1718C250.731 55.1718 250.406 55.3798 250.406 55.7958V56.4198H251.002ZM253.06 56.4198H253.602V56.9918H253.06V56.4198ZM256.689 56.2118C256.689 56.5758 256.798 56.7838 256.906 56.9398H256.148V56.6278C256.148 56.7838 256.039 56.9398 255.877 56.9398H254.415V56.3678H256.148V55.7438C256.148 55.4318 255.931 55.1198 255.552 55.1198H254.577C254.685 54.9638 254.794 54.7558 254.794 54.5478H255.498C256.256 54.5478 256.635 55.1198 256.635 55.7438V56.2118H256.689ZM255.119 53.9238L254.685 53.4558L255.119 52.9878L255.552 53.4558L255.119 53.9238Z" fill="#F59C1A"/>
<path fill-rule="evenodd" clip-rule="evenodd" d="M261.619 51.5318V57.1478C261.619 58.3958 261.077 59.1758 260.319 59.5918C260.21 59.1758 259.939 58.7078 259.723 58.3958C260.102 58.1878 260.427 57.7718 260.427 57.1478V52.2078L261.619 51.5318ZM263.948 55.4318C263.081 53.7678 263.839 51.2718 266.168 51.2718C267.902 51.2718 268.714 52.6238 268.714 54.0278V55.4318H271.639V53.1958L272.885 52.5198V55.3798H275.539V52.1038L276.785 51.4798V55.3798H279.439V52.9358C279.439 52.7278 279.385 52.4678 279.276 52.2598L280.143 51.3238C280.468 51.7918 280.631 52.3638 280.631 52.9878V55.4318H283.501V48.1518C283.989 48.9318 284.53 49.5558 285.072 49.9718H284.693V56.7318H281.226C280.901 56.7318 280.631 56.4198 280.631 56.1078C280.631 56.4718 280.36 56.7318 280.035 56.7318H277.326C277.001 56.7318 276.731 56.4718 276.731 56.1078V56.7318H273.427C273.102 56.7318 272.831 56.4198 272.831 56.1078V56.7318H269.31C268.985 56.7318 268.714 56.4198 268.714 56.1078V56.7318H262.268C261.944 56.7318 261.673 56.4198 261.673 56.0558V55.4318H263.948ZM267.468 54.0278C267.468 53.3518 267.035 52.6238 266.114 52.6238C264.327 52.6238 264.327 55.4838 266.114 55.4838H267.468V54.0278ZM266.114 49.8678L265.139 48.8278L266.114 47.7878L267.089 48.8278L266.114 49.8678ZM283.501 48.0478V48.1518C283.465 48.1172 283.447 48.0825 283.447 48.0478H283.501ZM286.751 48.0478C287.239 48.8798 287.835 49.5558 288.322 49.9718H287.943V56.7318H286.697V48.0478H286.751ZM293.63 58.5518C294.659 58.5518 295.743 57.8758 295.905 56.5238C295.905 56.3678 295.905 56.2118 295.905 56.1078C295.743 56.5758 295.309 56.7838 295.039 56.7838H294.605C292.926 56.7838 292.059 55.4838 292.059 54.1318C292.005 52.7278 292.872 51.3238 294.605 51.3238C296.338 51.3238 297.151 52.6758 297.151 54.0278V56.1078C297.151 58.4478 295.634 59.6958 293.955 59.8518C293.901 59.2798 293.739 58.8638 293.522 58.5518H293.63ZM295.959 54.0278C295.959 53.3518 295.526 52.6238 294.605 52.6238C293.684 52.6238 293.197 53.4558 293.251 54.1838C293.305 54.8598 293.739 55.4838 294.605 55.4838H295.959V54.0278ZM307.659 55.0678C307.659 55.2065 307.677 55.3452 307.713 55.4838H318.6V54.0798C318.6 53.4038 318.167 52.6758 317.246 52.6758H309.934C310.151 52.3118 310.421 51.8438 310.476 51.3758H317.192C318.871 51.3758 319.738 52.7278 319.738 54.1318V55.0678H319.792C319.792 55.8478 320.009 56.3678 320.225 56.7838H319.196C318.871 56.7838 318.6 56.4718 318.6 56.1078V55.5878L318.059 56.7838H307.063C306.738 56.7838 306.467 56.4718 306.467 56.1078V56.7838H304.138C302.405 56.7838 301.593 55.4318 301.593 54.0278C301.593 52.6238 302.459 51.3238 304.138 51.3238H305.817C306.142 51.3238 306.413 51.6358 306.413 51.9998V51.3238C306.955 51.2718 307.334 51.0638 307.659 50.8558V55.0678ZM306.413 52.6238H304.084C303.163 52.6238 302.73 53.4038 302.73 54.0798C302.73 54.7558 303.217 55.4318 304.084 55.4318H306.413V52.6238ZM304.247 49.8678L303.272 48.8278L304.247 47.7878L305.059 48.6198L305.872 47.7878L306.847 48.8278L305.872 49.8678L305.059 49.0358L304.247 49.8678ZM322.934 55.3798C322.934 55.4145 322.934 55.4492 322.934 55.4838H325.859V51.9998C325.859 51.6358 326.129 51.3238 326.454 51.3238H327.05V56.7838H321.688V48.0998C322.175 48.9318 322.771 49.6078 323.259 50.0238H322.879V55.3798H322.934ZM324.938 58.1358L325.75 58.9678L326.563 58.1358L327.538 59.1758L326.563 60.2158L325.75 59.3838L324.938 60.2158L323.963 59.1758L324.938 58.1358ZM338.479 51.3238C338.804 51.7918 338.967 52.3638 338.967 52.9878V56.1078C338.967 56.4718 338.696 56.7318 338.371 56.7318H335.717C335.392 56.7318 335.121 56.4718 335.121 56.1078V56.7318H331.817C331.492 56.7318 331.221 56.4198 331.221 56.1078V56.7318H327.7C327.375 56.7318 327.104 56.4198 327.104 56.1078V55.4318H330.029V53.1958L331.275 52.5198V55.3798H333.929V52.1038L335.175 51.4798V55.3798H337.829V52.9358C337.829 52.7278 337.775 52.4678 337.667 52.2598L338.479 51.3238ZM341.892 48.0478V48.1518C341.855 48.1172 341.837 48.0825 341.837 48.0478H341.892ZM343.462 49.9718H343.083V56.7318H339.617C339.292 56.7318 339.021 56.4198 339.021 56.1078V55.4318H341.892V48.1518C342.379 48.9318 342.921 49.5558 343.462 49.9718ZM346.008 48.0478V48.1518C345.972 48.1172 345.954 48.0825 345.954 48.0478H346.008ZM347.579 49.9718H347.2V56.7318H343.733C343.408 56.7318 343.137 56.4198 343.137 56.1078V55.4318H346.008V48.1518C346.496 48.9318 347.037 49.5558 347.579 49.9718Z" fill="#F59C1A"/>
<path d="M262.539 26.9878L258.964 23.7638L262.539 20.5398L266.114 23.7638L262.539 26.9878Z" fill="#011160"/>
<path d="M341.404 39.7798V12.7398C341.404 12.0118 342.108 11.4398 343.029 11.4398H346.821C347.091 11.4398 347.308 11.5958 347.308 11.8038V39.6238C347.308 39.9878 346.929 40.2478 346.496 40.2478H341.946C341.621 40.2478 341.35 40.0398 341.404 39.7798Z" fill="#011160"/>
<path d="M333.821 22.9318C334.092 22.8278 334.471 22.9838 334.471 23.2438V41.4958C334.471 45.6038 331.763 48.3078 328.134 49.6598C327.484 48.2558 326.292 46.6958 325.371 45.7078C327.213 44.9798 328.621 43.5758 328.621 41.4958V25.6878C328.621 25.2198 328.946 24.8038 329.488 24.5958L333.821 22.9318Z" fill="#011160"/>
<path d="M318.6 45.3438L315.188 48.3598L312.371 45.8638L309.555 48.3598L306.197 45.3438L309.555 42.3278L312.371 44.8238L315.188 42.3278L318.6 45.3438Z" fill="#011160"/>
<path d="M321.092 22.2038V40.1958H311.559H310.367H287.239H285.397H281.985C280.793 40.1958 279.71 39.6758 279.276 38.8958V40.1958H267.577H262.268H250.569H245.586H242.173C241.794 40.1958 241.523 39.9878 241.523 39.6758V26.8838V22.4638V13.8838C241.523 12.5318 242.931 11.4398 244.611 11.4398H247.427V22.4638V26.8838V35.5678H273.318V24.0758C273.318 22.8798 274.672 21.8918 276.297 21.8918H278.789C279.006 21.8918 279.222 22.0478 279.222 22.2558V35.5678H315.134V24.0758C315.134 22.8798 316.488 21.8918 318.113 21.8918H320.659C320.875 21.8918 321.038 22.0478 321.092 22.2038Z" fill="#011160"/>
<path d="M7.58316 50.3878C7.52899 50.2318 7.52899 50.1278 7.52899 49.9718C7.52899 49.8158 7.52899 49.7118 7.52899 49.6078C7.52899 49.5038 7.52899 49.3998 7.52899 49.2438C7.52899 49.0878 7.58316 48.9838 7.58316 48.8278H14.1372C14.1913 48.9318 14.1913 49.0358 14.1913 49.1918C14.1913 49.3478 14.1913 49.4518 14.1913 49.5558C14.1913 49.8678 14.083 50.0758 13.9205 50.1798C13.758 50.2838 13.4872 50.3878 13.108 50.3878H12.7289C12.6205 50.3878 12.5122 50.3878 12.2955 50.3878C12.0789 50.3878 11.9705 50.3878 11.8622 50.3878H9.74977C9.64144 50.3878 9.53311 50.3878 9.31645 50.3878C9.15395 50.3878 8.99146 50.3878 8.88312 50.3878H7.58316ZM9.80394 51.2198C9.80394 51.0638 9.80394 50.9078 9.80394 50.8038C9.80394 50.6998 9.80394 50.5438 9.80394 50.3878V49.6078H11.9164V50.3878C11.9164 50.5438 11.9164 50.6998 11.9164 50.8038C11.9164 50.9078 11.9164 51.0638 11.9164 51.2198V56.7838C11.7539 56.8358 11.5372 56.8358 11.3747 56.8358C11.2122 56.8358 10.9956 56.8358 10.8872 56.8358C10.7067 56.8358 10.5442 56.8358 10.3998 56.8358C10.2373 56.8358 10.0206 56.7838 9.8581 56.7838V51.2198H9.80394Z" fill="#F59C1A"/>
<path fill-rule="evenodd" clip-rule="evenodd" d="M14.733 52.7798C14.733 51.9478 14.8955 51.2198 15.1663 50.5958C15.4371 49.9718 15.8704 49.5038 16.4663 49.1398C17.0621 48.7758 17.7662 48.6198 18.687 48.6198C19.5537 48.6198 20.312 48.7758 20.9078 49.1398C21.5036 49.5038 21.937 49.9718 22.2078 50.5958C22.4786 51.2198 22.6411 51.9478 22.6411 52.7798C22.6411 53.6118 22.4786 54.3398 22.2078 54.9638C21.937 55.5878 21.5036 56.0558 20.9078 56.4198C20.312 56.7838 19.6078 56.9398 18.687 56.9398C17.8204 56.9398 17.0621 56.7838 16.4663 56.4198C15.8704 56.0558 15.4371 55.5878 15.1663 54.9638C14.8955 54.3398 14.733 53.6118 14.733 52.7798ZM16.9537 52.7798C16.9537 53.0918 16.9537 53.4038 17.0079 53.7158C17.0621 54.0278 17.1162 54.3398 17.2246 54.5998C17.3329 54.8598 17.4954 55.0678 17.7662 55.2758C17.9829 55.4318 18.3079 55.5358 18.687 55.5358C19.0662 55.5358 19.3912 55.4318 19.6079 55.2758C19.8245 55.1198 19.987 54.9118 20.0953 54.5998C20.2037 54.3398 20.312 54.0278 20.312 53.7158C20.3662 53.4038 20.3662 53.0918 20.3662 52.7798C20.3662 52.4678 20.3662 52.1558 20.312 51.8438C20.2578 51.5318 20.2037 51.2198 20.0953 50.9598C19.987 50.6998 19.8245 50.4918 19.6079 50.2838C19.3912 50.1278 19.0662 50.0238 18.687 50.0238C18.3079 50.0238 17.9829 50.1278 17.7662 50.2838C17.5496 50.4398 17.3871 50.6478 17.2246 50.9598C17.1162 51.2198 17.0079 51.5318 17.0079 51.8438C16.9537 52.2078 16.9537 52.5198 16.9537 52.7798Z" fill="#F59C1A"/>
<path d="M31.3617 53.8718C31.3617 54.5478 31.1992 55.0678 30.9284 55.5358C30.6576 56.0038 30.2243 56.3678 29.7368 56.5758C29.1951 56.8358 28.5451 56.9398 27.7868 56.9398C27.0285 56.9398 26.3785 56.8358 25.8369 56.5758C25.2952 56.3158 24.9161 55.9518 24.6452 55.5358C24.3744 55.0678 24.2119 54.4958 24.2119 53.8718V48.8278L24.3202 48.7758H25.0786C25.4577 48.7758 25.7827 48.8798 25.9994 49.0358C26.216 49.2438 26.3244 49.5038 26.3244 49.9198V53.8718C26.3244 54.3918 26.4327 54.8078 26.6494 55.0678C26.866 55.3278 27.2452 55.4838 27.7868 55.4838C28.3285 55.4838 28.7076 55.3278 28.9243 55.0678C29.141 54.8078 29.2493 54.3918 29.2493 53.8718V48.8278C29.4118 48.7758 29.6284 48.7758 29.7909 48.7758C29.9354 48.7758 30.0979 48.7758 30.2784 48.7758C30.3868 48.7758 30.5493 48.7758 30.7659 48.7758C30.9826 48.7758 31.1451 48.8278 31.3617 48.8278V53.8718Z" fill="#F59C1A"/>
<path d="M40.0282 51.2718C40.0282 51.6358 39.9198 51.9998 39.7573 52.2598C39.5948 52.5718 39.3782 52.7798 39.1615 52.9878C38.9449 53.1958 38.674 53.2998 38.4032 53.4038C38.674 53.4558 38.8365 53.6118 38.999 53.8198C39.1615 54.0278 39.2698 54.2358 39.3782 54.4958L39.7573 55.4838C39.8115 55.6918 39.9198 55.8478 40.0282 55.9518C40.1365 56.1078 40.2448 56.2118 40.4073 56.3158C40.2448 56.4718 40.0823 56.5758 39.8115 56.7318C39.5226 56.8358 39.2518 56.8878 38.999 56.8878C38.6199 56.8878 38.349 56.7838 38.1865 56.6278C38.024 56.4718 37.8615 56.1598 37.699 55.7958L37.2116 54.5998C37.1574 54.3918 36.9949 54.2358 36.8866 54.0798C36.7241 53.9238 36.4532 53.8718 36.1283 53.8718H34.72V52.4678C34.8644 52.4678 35.0811 52.4678 35.3699 52.4678C35.6408 52.4678 35.8574 52.4678 36.0741 52.4678C36.2908 52.4678 36.4532 52.4678 36.5616 52.4678C36.8866 52.4678 37.1574 52.4158 37.3199 52.3118C37.4824 52.2078 37.6449 52.0518 37.699 51.8958C37.7532 51.7398 37.8074 51.5318 37.8074 51.3238C37.8074 51.1158 37.7532 50.9598 37.699 50.7518C37.6449 50.5958 37.4824 50.4398 37.3199 50.3358C37.1574 50.2318 36.8866 50.1798 36.5616 50.1798C36.3991 50.1798 36.2907 50.1798 36.1283 50.1798C35.9658 50.1798 35.8033 50.1798 35.5866 50.1798V56.8358C35.4241 56.8878 35.2074 56.8878 35.0449 56.8878C34.8825 56.8878 34.6658 56.8878 34.5575 56.8878C34.4491 56.8878 34.2866 56.8878 34.07 56.8878C33.8533 56.8878 33.6908 56.8358 33.5283 56.8358V48.9318L33.6366 48.8278C34.1783 48.8278 34.72 48.8278 35.2616 48.7758C35.8033 48.7758 36.2908 48.7758 36.7782 48.7758C37.3741 48.7758 37.9157 48.8798 38.4032 49.0358C38.8907 49.1918 39.2698 49.5038 39.5407 49.8678C39.9198 50.2318 40.0282 50.6998 40.0282 51.2718Z" fill="#F59C1A"/>
<path d="M41.2198 56.1078C41.2198 55.8478 41.3281 55.5878 41.4906 55.3278C41.6531 55.0678 41.8156 54.8598 42.0323 54.7038C42.4115 54.9118 42.8448 55.0678 43.2781 55.2238C43.7114 55.3798 44.1989 55.4838 44.6864 55.4838C45.0656 55.4838 45.3364 55.3798 45.4989 55.2238C45.6614 55.0678 45.7697 54.8598 45.7697 54.7038C45.7697 54.5998 45.7155 54.4438 45.6072 54.2878C45.4989 54.1318 45.2822 53.9758 44.9031 53.8198L43.3323 53.2478C42.7906 53.0398 42.3573 52.7798 41.9781 52.4158C41.599 52.0518 41.4365 51.6358 41.4365 51.0638C41.4365 50.5958 41.599 50.1278 41.8698 49.7638C42.1406 49.3998 42.5198 49.0878 43.0073 48.9318C43.4767 48.7238 44.0184 48.6198 44.6322 48.6198C45.2822 48.6198 45.8239 48.6718 46.3655 48.8278C46.9072 48.9838 47.3405 49.1398 47.7197 49.2958C47.7197 49.5558 47.6113 49.8158 47.503 50.0758C47.3947 50.3185 47.2322 50.5265 47.0155 50.6998C46.6905 50.5438 46.3114 50.4398 45.8239 50.3358C45.3905 50.2318 44.9572 50.1798 44.6322 50.1798C44.2531 50.1798 43.9823 50.2318 43.8198 50.3878C43.6573 50.5438 43.6031 50.6998 43.6031 50.8558C43.6031 51.0118 43.6573 51.1158 43.7656 51.2718C43.8739 51.3758 44.0906 51.4798 44.3614 51.6358L45.9864 52.2078C46.4197 52.3638 46.7988 52.5718 47.0697 52.7798C47.3405 52.9878 47.6113 53.2478 47.7197 53.5598C47.8822 53.8718 47.9363 54.1838 47.9363 54.4958C47.9363 54.9638 47.828 55.3798 47.5572 55.7958C47.2863 56.1598 46.9072 56.4718 46.4197 56.6798C45.9503 56.8878 45.3003 56.9918 44.4697 56.9918C43.9281 56.9918 43.3864 56.9398 42.7906 56.7838C42.249 56.5758 41.7073 56.3678 41.2198 56.1078Z" fill="#F59C1A"/>
<path d="M58.8777 51.8438C59.1485 51.8438 59.3652 51.8438 59.636 51.7918C59.8888 51.7225 60.1055 51.6705 60.286 51.6358C60.3943 51.7398 60.4485 51.8438 60.5027 51.9998C60.5568 52.1558 60.5568 52.3118 60.5568 52.4678C60.5568 52.7798 60.4485 52.9878 60.2318 53.1438C60.0152 53.2998 59.6902 53.3518 59.311 53.3518H56.1694C55.8444 53.3518 55.5736 53.4038 55.3028 53.4558C55.0861 53.5598 54.9236 53.6638 54.7611 53.8198C54.5986 53.9758 54.5987 54.1838 54.5987 54.4438C54.5987 54.7905 54.707 55.0505 54.9236 55.2238C55.1403 55.3798 55.357 55.4838 55.6278 55.4838C55.9528 55.4838 56.2236 55.4318 56.4403 55.3278C56.6569 55.2238 56.8736 55.1198 56.9819 55.0158V53.9758C56.9819 53.7678 56.9819 53.5078 56.9819 53.2478C56.9819 52.9878 56.9819 52.6758 57.0361 52.4158H58.9319C58.9319 52.6758 58.986 52.9878 58.986 53.2478C58.986 53.5078 58.986 53.7678 58.986 53.9758V54.8078C58.986 55.0505 58.986 55.3625 58.986 55.7438C58.986 56.1078 59.0402 56.4198 59.0402 56.6798C58.9319 56.7318 58.7694 56.7318 58.6069 56.7838C58.4444 56.7838 58.2819 56.7838 58.0652 56.7838C57.8847 56.7838 57.7222 56.7838 57.5777 56.7838C57.4152 56.7838 57.2527 56.7318 57.1444 56.7318L56.9819 56.2118C56.7111 56.4198 56.4403 56.5758 56.0611 56.6798C55.682 56.7838 55.3028 56.8878 54.9236 56.8878C54.382 56.8878 53.8945 56.7838 53.5153 56.5758C53.1362 56.3678 52.8654 56.1078 52.6487 55.7438C52.432 55.3798 52.3779 55.0158 52.3779 54.5998C52.3779 54.1318 52.4862 53.7678 52.7029 53.4038C52.9195 53.0918 53.2445 52.7798 53.5695 52.6238C53.8945 52.4158 54.2737 52.3638 54.6528 52.3638V52.5718C54.2737 52.5718 53.9487 52.4678 53.6778 52.3118C53.407 52.1558 53.1904 51.9478 52.9737 51.6358C52.8112 51.3758 52.7029 51.0638 52.7029 50.6998C52.7029 50.2838 52.8112 49.9198 53.082 49.6078C53.2987 49.2958 53.6237 49.0358 54.057 48.8798C54.4903 48.7238 54.9778 48.6198 55.5736 48.6198C56.1153 48.6198 56.6028 48.6718 57.0903 48.7238C57.5777 48.7758 58.0111 48.8798 58.3902 48.9838C58.3902 49.1918 58.3361 49.4518 58.2819 49.7118C58.1736 49.9718 58.0652 50.1798 57.9027 50.3358C57.6319 50.2318 57.3069 50.1798 56.9819 50.1278C56.6569 50.0758 56.3319 50.0238 56.0069 50.0238C55.6278 50.0238 55.357 50.1278 55.1945 50.2838C55.032 50.4398 54.9236 50.6478 54.9236 50.9078C54.9236 51.2198 55.032 51.4278 55.2486 51.5838C55.4653 51.7398 55.7903 51.7918 56.2236 51.7918H58.8777V51.8438Z" fill="#F59C1A"/>
<path d="M64.2401 50.3878C64.1859 50.2318 64.1859 50.1278 64.1859 49.9718C64.1859 49.8158 64.1859 49.7118 64.1859 49.6078C64.1859 49.5038 64.1859 49.3998 64.1859 49.2438C64.1859 49.0878 64.2401 48.9838 64.2401 48.8278H70.7941C70.8482 48.9318 70.8482 49.0358 70.8482 49.1918C70.8482 49.3478 70.8482 49.4518 70.8482 49.5558C70.8482 49.8678 70.7399 50.0758 70.5774 50.1798C70.4149 50.2838 70.1441 50.3878 69.7649 50.3878H69.3858C69.2775 50.3878 69.1691 50.3878 68.9525 50.3878C68.7358 50.3878 68.6275 50.3878 68.5191 50.3878H66.4067C66.2984 50.3878 66.19 50.3878 65.9734 50.3878C65.8109 50.3878 65.6484 50.3878 65.54 50.3878H64.2401ZM66.4609 51.2198C66.4609 51.0638 66.4609 50.9078 66.4609 50.8038C66.4609 50.6998 66.4609 50.5438 66.4609 50.3878V49.6078H68.5733V50.3878C68.5733 50.5438 68.5733 50.6998 68.5733 50.8038C68.5733 50.9078 68.5733 51.0638 68.5733 51.2198V56.7838C68.4108 56.8358 68.1941 56.8358 68.0317 56.8358C67.8692 56.8358 67.6525 56.8358 67.5442 56.8358C67.3636 56.8358 67.2011 56.8358 67.0567 56.8358C66.8942 56.8358 66.6775 56.7838 66.515 56.7838V51.2198H66.4609Z" fill="#F59C1A"/>
<path d="M78.648 51.2718C78.648 51.6358 78.5397 51.9998 78.3772 52.2598C78.2147 52.5718 77.9981 52.7798 77.7814 52.9878C77.5647 53.1958 77.2939 53.2998 77.0231 53.4038C77.2939 53.4558 77.4564 53.6118 77.6189 53.8198C77.7814 54.0278 77.8897 54.2358 77.998 54.4958L78.3772 55.4838C78.4314 55.6918 78.5397 55.8478 78.648 55.9518C78.7564 56.1078 78.8647 56.2118 79.0272 56.3158C78.8647 56.4718 78.7022 56.5758 78.4314 56.7318C78.1425 56.8358 77.8717 56.8878 77.6189 56.8878C77.2397 56.8878 76.9689 56.7838 76.8064 56.6278C76.6439 56.4718 76.4814 56.1598 76.3189 55.7958L75.8314 54.5998C75.7773 54.3918 75.6148 54.2358 75.5064 54.0798C75.3439 53.9238 75.0731 53.8718 74.7481 53.8718H73.3398V52.4678C73.4843 52.4678 73.7009 52.4678 73.9898 52.4678C74.2606 52.4678 74.4773 52.4678 74.694 52.4678C74.9106 52.4678 75.0731 52.4678 75.1815 52.4678C75.5064 52.4678 75.7773 52.4158 75.9398 52.3118C76.1023 52.2078 76.2648 52.0518 76.3189 51.8958C76.3731 51.7398 76.4273 51.5318 76.4273 51.3238C76.4273 51.1158 76.3731 50.9598 76.3189 50.7518C76.2648 50.5958 76.1023 50.4398 75.9398 50.3358C75.7773 50.2318 75.5064 50.1798 75.1815 50.1798C75.019 50.1798 74.9106 50.1798 74.7481 50.1798C74.5856 50.1798 74.4231 50.1798 74.2065 50.1798V56.8358C74.044 56.8878 73.8273 56.8878 73.6648 56.8878C73.5023 56.8878 73.2857 56.8878 73.1773 56.8878C73.069 56.8878 72.9065 56.8878 72.6898 56.8878C72.4732 56.8878 72.3107 56.8358 72.1482 56.8358V48.9318L72.2565 48.8278C72.7982 48.8278 73.3398 48.8278 73.8815 48.7758C74.4231 48.7758 74.9106 48.7758 75.3981 48.7758C75.9939 48.7758 76.5356 48.8798 77.0231 49.0358C77.5106 49.1918 77.8897 49.5038 78.1605 49.8678C78.4855 50.2492 78.648 50.7172 78.648 51.2718Z" fill="#F59C1A"/>
<path fill-rule="evenodd" clip-rule="evenodd" d="M82.6563 48.8278C82.8188 48.8278 83.0354 48.7758 83.2521 48.7758C83.4688 48.7758 83.6854 48.7758 83.8479 48.7758C84.0104 48.7758 84.2271 48.7758 84.4437 48.7758C84.6604 48.7758 84.8771 48.8278 85.0396 48.8278L87.8562 56.6798C87.6937 56.7318 87.5312 56.7838 87.3145 56.8358C87.0978 56.8878 86.8812 56.8878 86.6645 56.8878C86.3395 56.8878 86.0687 56.8358 85.9062 56.6798C85.7437 56.5238 85.5812 56.2638 85.4187 55.8478L85.2021 55.1198C85.4187 55.1198 86.4479 55.1198 86.502 55.1198L85.9604 53.6638C85.9062 53.6638 84.8229 53.6638 84.7146 53.6638L84.4979 52.8838C84.3896 52.5718 84.2812 52.1558 84.1187 51.7398C83.9563 51.3238 83.8479 50.9078 83.7396 50.4918H83.6854C83.6313 50.6998 83.5771 50.9598 83.5229 51.2198C83.4688 51.4798 83.3604 51.7398 83.3063 51.9998C83.1979 52.2598 83.1438 52.5198 83.0896 52.7278L82.7646 53.6638C82.4938 53.6638 81.7355 53.6638 81.6813 53.6638L81.0313 55.1198C81.0855 55.1198 82.223 55.1198 82.2771 55.1198L81.7355 56.7838C81.6271 56.8358 81.4646 56.8358 81.3022 56.8358C81.1216 56.8358 80.9591 56.8358 80.8147 56.8358C80.6522 56.8358 80.4897 56.8358 80.273 56.7838C80.0563 56.7318 79.8939 56.7318 79.7855 56.6798L79.7314 56.5758L82.6563 48.8278ZM84.6604 55.1198C84.7146 55.1198 84.8229 55.1198 84.8771 55.1198C84.9854 55.1198 85.0396 55.1198 85.1479 55.1198C85.1479 55.1198 85.1659 55.1198 85.2021 55.1198L84.7146 53.6638C84.6604 53.6638 84.5521 53.6638 84.4979 53.6638C84.4437 53.6638 83.3604 53.6638 83.3063 53.6638C83.2521 53.6638 83.1438 53.6638 83.0896 53.6638C83.0354 53.6638 82.9813 53.6638 82.8729 53.6638C82.8729 53.6638 82.8368 53.6638 82.7646 53.6638L82.2771 55.1198C82.3132 55.1198 82.3313 55.1198 82.3313 55.1198C82.3855 55.1198 82.4938 55.1198 82.5479 55.1198C82.6563 55.1198 84.6062 55.1198 84.6604 55.1198Z" fill="#F59C1A"/>
<path d="M93.5977 48.8278C93.7602 48.7758 93.9227 48.7758 94.0852 48.7758C94.2477 48.7758 94.4102 48.7758 94.5185 48.7758C94.6268 48.7758 94.7893 48.7758 95.006 48.8278C95.1685 48.8278 95.3851 48.8798 95.4935 48.9318L95.6018 49.0358L93.1102 56.8358C92.8935 56.8358 92.6227 56.8878 92.2977 56.8878C91.9727 56.8878 91.7019 56.8878 91.4311 56.8878C91.0519 56.8878 90.7269 56.8358 90.5103 56.7318C90.2936 56.6278 90.1311 56.4198 90.0228 56.0558L87.802 49.0358C88.0187 48.9838 88.1812 48.8798 88.3978 48.8278C88.6145 48.7758 88.8311 48.7238 89.0478 48.7238C89.3728 48.7238 89.5895 48.7758 89.8061 48.9318C89.9686 49.0878 90.1311 49.2958 90.1853 49.6598L91.2144 52.9878C91.2686 53.1958 91.3227 53.4558 91.4311 53.7158C91.5394 53.9758 91.5394 54.1838 91.5936 54.4438C91.6477 54.7038 91.7019 54.9118 91.7561 55.1718C91.7561 55.2758 91.8102 55.3278 91.9186 55.3278L93.5977 48.8278Z" fill="#F59C1A"/>
<path d="M97.0101 48.9318L97.1184 48.8278H99.1225V50.3878C99.1225 50.5438 99.1225 50.6998 99.1225 50.8038C99.1225 50.9078 99.1225 51.0638 99.1225 51.2198V54.4438C99.1225 54.5998 99.1225 54.7558 99.1225 54.8598C99.1225 54.9638 99.1225 55.1198 99.1225 55.2758V56.8358H98.2559C97.8767 56.8358 97.6059 56.7318 97.3893 56.5238C97.1726 56.3158 97.0643 56.0558 97.0643 55.7438V48.9318H97.0101ZM102.806 48.8278C102.86 48.9838 102.86 49.0878 102.86 49.2438C102.86 49.3478 102.86 49.5038 102.86 49.6078C102.86 49.7118 102.86 49.8678 102.806 49.9718C102.752 50.1278 102.752 50.2838 102.697 50.3878H99.9892C99.8809 50.3878 99.7184 50.3878 99.5017 50.3878C99.285 50.3878 99.0684 50.3878 98.8517 50.3878C98.6351 50.3878 98.4726 50.3878 98.3101 50.3878V48.8278H102.806ZM101.993 52.0518C102.047 52.1558 102.102 52.3118 102.102 52.4678C102.102 52.6238 102.102 52.7278 102.102 52.8318C102.102 52.9358 102.102 53.0398 102.102 53.1958C102.102 53.3518 102.047 53.4558 101.993 53.6118H99.9892C99.8809 53.6118 99.7184 53.6118 99.5017 53.6118C99.285 53.6118 99.0684 53.6118 98.8517 53.6118C98.6351 53.6118 98.4726 53.6118 98.3101 53.6118V52.1558C98.4726 52.1558 98.6351 52.1558 98.8517 52.1558C99.0684 52.1558 99.285 52.1558 99.5017 52.1558C99.7184 52.1558 99.8809 52.1558 99.9892 52.1558H101.993V52.0518ZM103.131 55.2758C103.131 55.7958 103.022 56.1598 102.86 56.4198C102.697 56.6798 102.318 56.8358 101.722 56.8358H98.3642V55.3278C98.6351 55.3278 98.9059 55.3278 99.1767 55.2758C99.4475 55.2238 99.7184 55.2758 100.043 55.2758H103.131Z" fill="#F59C1A"/>
<path d="M106.977 56.8358H106.11C105.731 56.8358 105.46 56.7318 105.189 56.5238C104.972 56.3158 104.864 56.0558 104.864 55.7438V48.8278L104.972 48.7758H105.731C106.11 48.7758 106.435 48.8798 106.652 49.0358C106.868 49.2438 106.977 49.5038 106.977 49.9198V56.8358ZM110.497 55.2238C110.497 55.7785 110.389 56.1945 110.172 56.4718C109.956 56.7318 109.576 56.8358 109.035 56.8358H106.056L104.918 55.4838C105.514 55.3798 106.056 55.3278 106.652 55.2758C107.193 55.2238 107.735 55.2238 108.222 55.2238H110.497Z" fill="#F59C1A"/>
<path d="M111.31 56.1078C111.31 55.8478 111.418 55.5878 111.581 55.3278C111.743 55.0678 111.906 54.8598 112.122 54.7038C112.501 54.9118 112.935 55.0678 113.368 55.2238C113.801 55.3798 114.289 55.4838 114.776 55.4838C115.155 55.4838 115.426 55.3798 115.589 55.2238C115.751 55.0678 115.86 54.8598 115.86 54.7038C115.86 54.5998 115.805 54.4438 115.697 54.2878C115.589 54.1318 115.372 53.9758 114.993 53.8198L113.422 53.2478C112.881 53.0398 112.447 52.7798 112.068 52.4158C111.689 52.0518 111.526 51.6358 111.526 51.0638C111.526 50.5958 111.689 50.1278 111.96 49.7638C112.231 49.3998 112.61 49.0878 113.097 48.9318C113.603 48.7238 114.144 48.6198 114.722 48.6198C115.372 48.6198 115.914 48.6718 116.455 48.8278C116.997 48.9838 117.43 49.1398 117.81 49.2958C117.81 49.5558 117.701 49.8158 117.593 50.0758C117.485 50.3185 117.322 50.5265 117.105 50.6998C116.78 50.5438 116.401 50.4398 115.914 50.3358C115.48 50.2318 115.047 50.1798 114.722 50.1798C114.343 50.1798 114.072 50.2318 113.91 50.3878C113.747 50.5438 113.693 50.6998 113.693 50.8558C113.693 51.0118 113.747 51.1158 113.856 51.2718C113.964 51.3758 114.181 51.4798 114.451 51.6358L116.076 52.2078C116.51 52.3638 116.889 52.5718 117.16 52.7798C117.43 52.9878 117.701 53.2478 117.81 53.5598C117.972 53.8718 118.026 54.1838 118.026 54.4958C118.026 54.9638 117.918 55.3798 117.647 55.7958C117.376 56.1598 116.997 56.4718 116.51 56.6798C116.04 56.8878 115.39 56.9918 114.56 56.9918C114.018 56.9918 113.476 56.9398 112.881 56.7838C112.339 56.5758 111.797 56.3678 111.31 56.1078Z" fill="#F59C1A"/>
<path d="M123.768 56.8358H123.28C123.064 56.8358 122.901 56.7838 122.793 56.6798C122.684 56.5758 122.63 56.4198 122.63 56.2638V52.4678L122.684 52.4158H123.118C123.334 52.4158 123.497 52.4678 123.605 52.5718C123.714 52.6758 123.768 52.8318 123.768 53.0918V56.8358ZM125.718 55.9518C125.718 56.2638 125.664 56.5238 125.555 56.6278C125.447 56.7838 125.23 56.8358 124.959 56.8358H123.334L122.684 56.1078C123.009 56.0558 123.334 56.0038 123.605 56.0038C123.876 56.0038 124.201 55.9518 124.472 55.9518H125.718Z" fill="#F59C1A"/>
<path d="M127.776 56.8358H127.289C127.072 56.8358 126.909 56.7838 126.801 56.6798C126.693 56.5758 126.639 56.4198 126.639 56.2638V52.4678L126.693 52.4158H127.126C127.343 52.4158 127.505 52.4678 127.613 52.5718C127.722 52.6758 127.776 52.8318 127.776 53.0918V56.8358ZM129.726 55.9518C129.726 56.2638 129.672 56.5238 129.563 56.6278C129.455 56.7838 129.238 56.8358 128.968 56.8358H127.343L126.693 56.1078C127.018 56.0558 127.343 56.0038 127.613 56.0038C127.884 56.0038 128.209 55.9518 128.48 55.9518H129.726Z" fill="#F59C1A"/>
<path d="M133.084 54.1318C133.084 53.9758 133.084 53.7678 133.03 53.6118C132.976 53.4558 132.922 53.3518 132.813 53.2478C132.705 53.1438 132.543 53.0918 132.326 53.0918C132.001 53.0918 131.784 53.1958 131.676 53.4558C131.568 53.7158 131.459 54.0798 131.459 54.5478C131.459 55.0158 131.568 55.3278 131.73 55.5878C131.893 55.7958 132.163 55.9518 132.488 55.9518C132.759 55.9518 132.976 55.8998 133.193 55.7958C133.409 55.6918 133.572 55.5878 133.734 55.4838C133.843 55.5185 133.951 55.6225 134.059 55.7958C134.168 55.9518 134.222 56.0558 134.276 56.1598C134.113 56.2638 133.951 56.4198 133.734 56.5238C133.518 56.6278 133.301 56.7318 133.03 56.7838C132.759 56.8358 132.543 56.8878 132.272 56.8878C131.893 56.8878 131.568 56.8358 131.297 56.6798C131.026 56.5238 130.809 56.3678 130.701 56.1598C130.538 55.9518 130.43 55.6918 130.376 55.4318C130.322 55.1718 130.268 54.9118 130.268 54.5998C130.268 54.0798 130.376 53.6118 130.538 53.2998C130.701 52.9878 130.972 52.7278 131.297 52.5718C131.622 52.4158 131.947 52.3118 132.38 52.3118C132.777 52.3118 133.102 52.3638 133.355 52.4678C133.644 52.5718 133.861 52.7278 134.005 52.9358C134.168 53.1438 134.222 53.3518 134.222 53.6118C134.222 53.8198 134.168 53.9758 134.059 54.0278C133.951 54.1318 133.788 54.1838 133.572 54.1838C133.463 54.1838 133.409 54.1838 133.355 54.1838C133.193 54.1838 133.138 54.1838 133.084 54.1318Z" fill="#F59C1A"/>
<path fill-rule="evenodd" clip-rule="evenodd" d="M30.0076 26.3638C30.0076 30.4198 30.0076 33.5918 30.0076 35.8278C30.0076 37.5265 30.0076 38.7225 30.0076 39.4158C30.0076 39.7278 29.7368 39.9878 29.4659 39.9878C28.9243 40.0398 28.0035 40.0918 26.7035 40.1958C24.9702 40.3518 23.1827 40.4038 21.287 40.4038C19.9328 40.4038 18.362 40.2998 16.6829 40.0398C14.8413 39.7798 13.3247 39.4158 12.133 38.8438C10.6164 38.1678 9.37059 37.1798 8.50395 36.0358C7.69147 34.9438 7.25814 33.6958 7.20398 32.2398C7.25814 30.6798 7.74563 29.3278 8.61228 28.1838C9.53309 26.9358 10.9956 25.9478 12.9997 25.1678C14.2996 24.6478 15.9788 24.2318 17.9287 23.9198C19.0662 23.7638 20.0953 23.6078 21.1245 23.5038C22.5869 23.3478 23.5619 23.2958 24.0494 23.2958C24.2119 23.2958 24.3744 23.1398 24.3202 22.9318C23.4536 18.3038 17.2787 18.2518 17.2787 18.2518C16.6287 18.2518 15.9246 18.1998 15.1121 18.1998C14.8955 18.1998 14.6246 18.1998 14.408 18.1998C14.3538 18.1998 14.2455 18.1998 14.1371 18.1998C13.108 18.1998 12.1872 18.1998 11.483 18.2518C10.7789 18.2518 10.2914 17.6798 10.3456 17.0038L10.7247 13.6758C10.7789 13.2598 11.1039 12.9478 11.483 12.9478C11.7539 12.8958 12.0247 12.8958 12.4039 12.8958C12.9997 12.8438 13.758 12.8438 14.733 12.8438C17.4954 12.8438 19.8245 13.1038 21.6661 13.6238C23.5619 14.1438 25.1869 14.9758 26.4868 16.1718C27.6785 17.2638 28.5451 18.5638 29.0868 20.1238C29.6284 21.6838 29.8993 23.7118 30.0076 26.3638ZM23.9411 26.9878C13.3788 27.0398 12.783 30.8878 12.7288 31.5118C12.7288 31.7718 12.783 32.0838 12.8372 32.3958C14.0288 36.7638 21.8828 36.1918 23.8869 35.9318C24.1577 35.8798 24.3744 35.6198 24.3744 35.3598V27.3518C24.3744 27.1438 24.1577 26.9878 23.9411 26.9878Z" fill="#011160"/>
<path d="M105.731 24.5958V27.5598V28.0798V31.5638V32.2918V35.4638V40.2998H102.968C102.752 40.2998 102.589 40.2998 102.427 40.2478C101.885 40.1438 101.343 39.8838 100.91 39.4678C100.26 38.8958 99.935 38.2198 99.935 37.3878V35.5678V32.3438V31.5638V28.0798V27.5598V25.5838C99.935 24.1625 99.8267 22.9665 99.61 21.9958C99.3934 21.0078 99.0684 20.2278 98.6351 19.6038C98.2017 18.9798 97.5517 18.5118 96.7934 18.2518C96.0351 17.9918 95.1143 17.8358 94.0852 17.8358C93.7602 17.7838 93.4352 17.7838 93.056 17.7838C92.2616 17.7838 91.3949 17.8358 90.4561 17.9398C89.5894 18.0438 88.8853 18.1478 88.452 18.1998V27.5598V28.0798V31.5638V31.9278V40.2998H82.6563V31.9278V31.5118V28.0278V27.5078V14.0398C83.9562 13.7278 85.5812 13.4158 87.6395 13.1038C89.6436 12.7918 91.9185 12.6358 94.4102 12.6358C94.7351 12.6358 95.006 12.6358 95.2768 12.6358C96.9018 12.7398 98.2559 13.0518 99.4475 13.4678C101.018 14.0398 102.264 14.8718 103.185 15.9118C104.106 16.9518 104.756 18.2518 105.135 19.7078C105.514 21.1638 105.677 22.7758 105.731 24.5958Z" fill="#011160"/>
<path d="M50.1029 12.8438V17.9398C50.1029 17.9918 50.0488 18.0958 49.9404 18.0958H49.6696H48.0988H47.6113C45.878 18.0958 44.5781 18.5118 43.7656 19.3438C42.9531 20.1238 42.5198 21.4238 42.5198 23.1918V24.0238V35.8798V35.9318C42.5198 38.9478 40.0282 40.2478 36.9407 40.3518C36.7783 40.4038 36.6699 40.2478 36.6699 40.1438V36.0878V35.2558V34.6838V24.7518C36.6699 22.4638 36.9949 20.5398 37.6991 18.9798C38.349 17.4198 39.324 16.1718 40.5157 15.2358C41.6531 14.3518 43.0073 13.7278 44.5239 13.3118C46.0405 12.8958 47.6113 12.6878 49.2363 12.6878H49.6696H49.9404C50.0488 12.6878 50.1029 12.7398 50.1029 12.8438Z" fill="#011160"/>
<path fill-rule="evenodd" clip-rule="evenodd" d="M134.384 26.3638C134.384 30.4198 134.384 33.5918 134.384 35.8278C134.384 37.5265 134.384 38.7225 134.384 39.4158C134.384 39.7278 134.113 39.9878 133.843 39.9878C133.301 40.0398 132.38 40.0918 131.08 40.1958C129.347 40.3518 127.559 40.4038 125.664 40.4038C124.309 40.4038 122.739 40.2998 121.059 40.0398C119.218 39.7798 117.701 39.4158 116.51 38.8438C114.993 38.1678 113.747 37.1798 112.881 36.0358C112.068 34.9438 111.635 33.6958 111.581 32.2398C111.635 30.6798 112.122 29.3278 112.989 28.1838C113.91 26.9358 115.372 25.9478 117.376 25.1678C118.676 24.6478 120.355 24.2318 122.305 23.9198C123.443 23.7638 124.472 23.6078 125.501 23.5038C126.964 23.3478 127.938 23.2958 128.426 23.2958C128.588 23.2958 128.751 23.1398 128.697 22.9318C127.83 18.3038 121.655 18.2518 121.655 18.2518C121.005 18.2518 120.301 18.1998 119.489 18.1998C119.272 18.1998 119.001 18.1998 118.785 18.1998C118.73 18.1998 118.622 18.1998 118.514 18.1998C117.485 18.1998 116.564 18.1998 115.86 18.2518C115.155 18.2518 114.668 17.6798 114.722 17.0038L115.101 13.6758C115.155 13.2598 115.48 12.9478 115.86 12.9478C116.13 12.8958 116.401 12.8958 116.78 12.8958C117.376 12.8438 118.135 12.8438 119.11 12.8438C121.872 12.8438 124.201 13.1038 126.043 13.6238C127.938 14.1438 129.563 14.9758 130.863 16.1718C132.055 17.2638 132.922 18.5638 133.463 20.1238C134.005 21.6838 134.276 23.7118 134.384 26.3638ZM128.263 26.9878C117.701 27.0398 117.105 30.8878 117.051 31.5118C117.051 31.7718 117.105 32.0838 117.16 32.3958C118.351 36.7638 126.205 36.1918 128.209 35.9318C128.48 35.8798 128.697 35.6198 128.697 35.3598V27.3518C128.697 27.1438 128.534 26.9878 128.263 26.9878Z" fill="#011160"/>
<path fill-rule="evenodd" clip-rule="evenodd" d="M76.6981 26.5718C76.6981 26.8838 76.6981 27.2478 76.6981 27.6638C76.6439 27.8718 76.6439 28.0798 76.6439 28.2358C76.6439 28.4958 76.3731 28.7558 76.0481 28.7558H58.4985C58.4985 28.7558 58.5527 29.3798 58.7694 30.2118C58.8235 30.4198 58.9319 30.6278 58.986 30.8358V30.8878C60.0152 33.6958 63.2651 37.8038 73.719 34.4238C73.9898 34.3198 74.2606 34.4758 74.3148 34.7358L74.9106 38.0638C75.019 38.5318 74.7481 38.9998 74.2607 39.1558C74.044 39.2078 73.8273 39.3118 73.6107 39.3638C73.0329 39.5025 72.3288 39.6585 71.4982 39.8318C70.7399 39.9878 69.8733 40.0918 68.9525 40.1958C68.158 40.2998 67.3455 40.3518 66.515 40.3518C64.2942 40.2998 62.3443 39.9878 60.6652 39.3638C58.8777 38.6878 57.3611 37.7518 56.2236 36.5558C55.032 35.3772 54.1653 33.9732 53.6237 32.3438C53.0278 30.7318 52.757 28.9638 52.757 27.0398C52.757 24.7518 53.1362 22.8278 53.8403 21.1118C54.5445 19.4478 55.5194 18.0438 56.7111 16.8998C57.9027 15.7558 59.2569 14.9238 60.8277 14.3518C62.2901 13.8318 63.7526 13.5718 65.215 13.5198C68.79 13.6238 71.6066 14.7158 73.6648 16.7958C75.7773 18.9798 76.8606 22.2558 76.6981 26.5718ZM70.4691 24.3878H71.3357C71.3357 24.3878 71.3899 24.3878 71.3899 24.3358C71.3899 23.5558 71.2274 22.8278 71.0107 22.0998C70.7399 21.3718 70.4149 20.6958 69.9274 20.1758C69.7108 19.9678 69.4941 19.7598 69.2233 19.5518C69.2233 19.4998 69.1691 19.4998 69.1691 19.4998C68.8441 19.2918 68.5191 19.0838 68.14 18.9278H68.0858C65.2692 17.5758 62.7776 18.6678 61.7485 19.2398C61.4776 19.4478 61.3151 19.5518 61.3151 19.5518C60.9901 19.8118 60.7193 20.0718 60.4485 20.3318C59.9068 20.9038 59.5277 21.5278 59.2569 22.2558C58.9319 22.9318 58.7694 23.6598 58.661 24.3878C58.661 24.4398 58.7152 24.4398 58.7152 24.4398H70.4691V24.3878Z" fill="#011160"/>
</svg>
