<svg width="210" height="46" viewBox="0 0 210 46" fill="none" xmlns="http://www.w3.org/2000/svg">
<path d="M82.3792 37.752C82.325 37.596 82.325 37.492 82.325 37.336C82.325 37.18 82.325 37.076 82.325 36.972C82.325 36.868 82.325 36.764 82.325 36.608C82.325 36.452 82.3792 36.348 82.3792 36.192H88.9332C88.9873 36.296 88.9873 36.4 88.9873 36.556C88.9873 36.712 88.9873 36.816 88.9873 36.92C88.9873 37.232 88.879 37.44 88.7165 37.544C88.554 37.648 88.2832 37.752 87.904 37.752H87.5249C87.4166 37.752 87.3082 37.752 87.0916 37.752C86.8749 37.752 86.7666 37.752 86.6582 37.752H84.5458C84.4375 37.752 84.3291 37.752 84.1125 37.752C83.95 37.752 83.7875 37.752 83.6791 37.752H82.3792ZM84.6 38.584C84.6 38.428 84.6 38.272 84.6 38.168C84.6 38.064 84.6 37.908 84.6 37.752V36.972H86.7124V37.752C86.7124 37.908 86.7124 38.064 86.7124 38.168C86.7124 38.272 86.7124 38.428 86.7124 38.584V44.148C86.5499 44.2 86.3332 44.2 86.1708 44.2C86.0083 44.2 85.7916 44.2 85.6833 44.2C85.5027 44.2 85.3402 44.2 85.1958 44.2C85.0333 44.2 84.8166 44.148 84.6541 44.148V38.584H84.6Z" fill="#F59C1A"/>
<path fill-rule="evenodd" clip-rule="evenodd" d="M89.529 40.144C89.529 39.312 89.6915 38.584 89.9623 37.96C90.2331 37.336 90.6665 36.868 91.2623 36.504C91.8581 36.14 92.5622 35.984 93.4831 35.984C94.3497 35.984 95.108 36.14 95.7038 36.504C96.2997 36.868 96.733 37.336 97.0038 37.96C97.2746 38.584 97.4371 39.312 97.4371 40.144C97.4371 40.976 97.2746 41.704 97.0038 42.328C96.733 42.952 96.2997 43.42 95.7038 43.784C95.108 44.148 94.4039 44.304 93.4831 44.304C92.6164 44.304 91.8581 44.148 91.2623 43.784C90.6665 43.42 90.2331 42.952 89.9623 42.328C89.6915 41.704 89.529 40.976 89.529 40.144ZM91.7498 40.144C91.7498 40.456 91.7498 40.768 91.8039 41.08C91.8581 41.392 91.9123 41.704 92.0206 41.964C92.1289 42.224 92.2914 42.432 92.5622 42.64C92.7789 42.796 93.1039 42.9 93.4831 42.9C93.8622 42.9 94.1872 42.796 94.4039 42.64C94.6205 42.484 94.783 42.276 94.8914 41.964C94.9997 41.704 95.108 41.392 95.108 41.08C95.1622 40.768 95.1622 40.456 95.1622 40.144C95.1622 39.832 95.1622 39.52 95.108 39.208C95.0539 38.896 94.9997 38.584 94.8914 38.324C94.783 38.064 94.6205 37.856 94.4039 37.648C94.1872 37.492 93.8622 37.388 93.4831 37.388C93.1039 37.388 92.7789 37.492 92.5622 37.648C92.3456 37.804 92.1831 38.012 92.0206 38.324C91.9123 38.584 91.8039 38.896 91.8039 39.208C91.7498 39.572 91.7498 39.884 91.7498 40.144Z" fill="#F59C1A"/>
<path d="M106.158 41.236C106.158 41.912 105.995 42.432 105.724 42.9C105.454 43.368 105.02 43.732 104.533 43.94C103.991 44.2 103.341 44.304 102.583 44.304C101.825 44.304 101.175 44.2 100.633 43.94C100.091 43.68 99.7121 43.316 99.4413 42.9C99.1704 42.432 99.0079 41.86 99.0079 41.236V36.192L99.1163 36.14H99.8746C100.254 36.14 100.579 36.244 100.795 36.4C101.012 36.608 101.12 36.868 101.12 37.284V41.236C101.12 41.756 101.229 42.172 101.445 42.432C101.662 42.692 102.041 42.848 102.583 42.848C103.124 42.848 103.504 42.692 103.72 42.432C103.937 42.172 104.045 41.756 104.045 41.236V36.192C104.208 36.14 104.424 36.14 104.587 36.14C104.731 36.14 104.894 36.14 105.074 36.14C105.183 36.14 105.345 36.14 105.562 36.14C105.779 36.14 105.941 36.192 106.158 36.192V41.236Z" fill="#F59C1A"/>
<path d="M114.824 38.636C114.824 39 114.716 39.364 114.553 39.624C114.391 39.936 114.174 40.144 113.958 40.352C113.741 40.56 113.47 40.664 113.199 40.768C113.47 40.82 113.633 40.976 113.795 41.184C113.958 41.392 114.066 41.6 114.174 41.86L114.553 42.848C114.608 43.056 114.716 43.212 114.824 43.316C114.933 43.472 115.041 43.576 115.203 43.68C115.041 43.836 114.878 43.94 114.608 44.096C114.319 44.2 114.048 44.252 113.795 44.252C113.416 44.252 113.145 44.148 112.983 43.992C112.82 43.836 112.658 43.524 112.495 43.16L112.008 41.964C111.953 41.756 111.791 41.6 111.683 41.444C111.52 41.288 111.249 41.236 110.924 41.236H109.516V39.832C109.66 39.832 109.877 39.832 110.166 39.832C110.437 39.832 110.653 39.832 110.87 39.832C111.087 39.832 111.249 39.832 111.358 39.832C111.683 39.832 111.953 39.78 112.116 39.676C112.278 39.572 112.441 39.416 112.495 39.26C112.549 39.104 112.603 38.896 112.603 38.688C112.603 38.48 112.549 38.324 112.495 38.116C112.441 37.96 112.278 37.804 112.116 37.7C111.953 37.596 111.683 37.544 111.358 37.544C111.195 37.544 111.087 37.544 110.924 37.544C110.762 37.544 110.599 37.544 110.383 37.544V44.2C110.22 44.252 110.003 44.252 109.841 44.252C109.678 44.252 109.462 44.252 109.353 44.252C109.245 44.252 109.083 44.252 108.866 44.252C108.649 44.252 108.487 44.2 108.324 44.2V36.296L108.433 36.192C108.974 36.192 109.516 36.192 110.058 36.14C110.599 36.14 111.087 36.14 111.574 36.14C112.17 36.14 112.712 36.244 113.199 36.4C113.687 36.556 114.066 36.868 114.337 37.232C114.716 37.596 114.824 38.064 114.824 38.636Z" fill="#F59C1A"/>
<path d="M116.016 43.472C116.016 43.212 116.124 42.952 116.287 42.692C116.449 42.432 116.612 42.224 116.828 42.068C117.207 42.276 117.641 42.432 118.074 42.588C118.507 42.744 118.995 42.848 119.482 42.848C119.862 42.848 120.132 42.744 120.295 42.588C120.457 42.432 120.566 42.224 120.566 42.068C120.566 41.964 120.512 41.808 120.403 41.652C120.295 41.496 120.078 41.34 119.699 41.184L118.128 40.612C117.587 40.404 117.153 40.144 116.774 39.78C116.395 39.416 116.233 39 116.233 38.428C116.233 37.96 116.395 37.492 116.666 37.128C116.937 36.764 117.316 36.452 117.803 36.296C118.273 36.088 118.814 35.984 119.428 35.984C120.078 35.984 120.62 36.036 121.162 36.192C121.703 36.348 122.137 36.504 122.516 36.66C122.516 36.92 122.407 37.18 122.299 37.44C122.191 37.6827 122.028 37.8907 121.812 38.064C121.487 37.908 121.107 37.804 120.62 37.7C120.187 37.596 119.753 37.544 119.428 37.544C119.049 37.544 118.778 37.596 118.616 37.752C118.453 37.908 118.399 38.064 118.399 38.22C118.399 38.376 118.453 38.48 118.562 38.636C118.67 38.74 118.887 38.844 119.157 39L120.782 39.572C121.216 39.728 121.595 39.936 121.866 40.144C122.137 40.352 122.407 40.612 122.516 40.924C122.678 41.236 122.732 41.548 122.732 41.86C122.732 42.328 122.624 42.744 122.353 43.16C122.082 43.524 121.703 43.836 121.216 44.044C120.746 44.252 120.096 44.356 119.266 44.356C118.724 44.356 118.182 44.304 117.587 44.148C117.045 43.94 116.503 43.732 116.016 43.472Z" fill="#F59C1A"/>
<path d="M133.674 39.208C133.945 39.208 134.161 39.208 134.432 39.156C134.685 39.0867 134.901 39.0347 135.082 39C135.19 39.104 135.245 39.208 135.299 39.364C135.353 39.52 135.353 39.676 135.353 39.832C135.353 40.144 135.245 40.352 135.028 40.508C134.811 40.664 134.486 40.716 134.107 40.716H130.965C130.64 40.716 130.37 40.768 130.099 40.82C129.882 40.924 129.72 41.028 129.557 41.184C129.395 41.34 129.395 41.548 129.395 41.808C129.395 42.1547 129.503 42.4147 129.72 42.588C129.936 42.744 130.153 42.848 130.424 42.848C130.749 42.848 131.02 42.796 131.236 42.692C131.453 42.588 131.67 42.484 131.778 42.38V41.34C131.778 41.132 131.778 40.872 131.778 40.612C131.778 40.352 131.778 40.04 131.832 39.78H133.728C133.728 40.04 133.782 40.352 133.782 40.612C133.782 40.872 133.782 41.132 133.782 41.34V42.172C133.782 42.4147 133.782 42.7267 133.782 43.108C133.782 43.472 133.836 43.784 133.836 44.044C133.728 44.096 133.565 44.096 133.403 44.148C133.24 44.148 133.078 44.148 132.861 44.148C132.681 44.148 132.518 44.148 132.374 44.148C132.211 44.148 132.049 44.096 131.94 44.096L131.778 43.576C131.507 43.784 131.236 43.94 130.857 44.044C130.478 44.148 130.099 44.252 129.72 44.252C129.178 44.252 128.691 44.148 128.311 43.94C127.932 43.732 127.661 43.472 127.445 43.108C127.228 42.744 127.174 42.38 127.174 41.964C127.174 41.496 127.282 41.132 127.499 40.768C127.716 40.456 128.041 40.144 128.366 39.988C128.691 39.78 129.07 39.728 129.449 39.728V39.936C129.07 39.936 128.745 39.832 128.474 39.676C128.203 39.52 127.986 39.312 127.77 39C127.607 38.74 127.499 38.428 127.499 38.064C127.499 37.648 127.607 37.284 127.878 36.972C128.095 36.66 128.42 36.4 128.853 36.244C129.286 36.088 129.774 35.984 130.37 35.984C130.911 35.984 131.399 36.036 131.886 36.088C132.374 36.14 132.807 36.244 133.186 36.348C133.186 36.556 133.132 36.816 133.078 37.076C132.97 37.336 132.861 37.544 132.699 37.7C132.428 37.596 132.103 37.544 131.778 37.492C131.453 37.44 131.128 37.388 130.803 37.388C130.424 37.388 130.153 37.492 129.99 37.648C129.828 37.804 129.72 38.012 129.72 38.272C129.72 38.584 129.828 38.792 130.045 38.948C130.261 39.104 130.586 39.156 131.02 39.156H133.674V39.208Z" fill="#F59C1A"/>
<path d="M139.036 37.752C138.982 37.596 138.982 37.492 138.982 37.336C138.982 37.18 138.982 37.076 138.982 36.972C138.982 36.868 138.982 36.764 138.982 36.608C138.982 36.452 139.036 36.348 139.036 36.192H145.59C145.644 36.296 145.644 36.4 145.644 36.556C145.644 36.712 145.644 36.816 145.644 36.92C145.644 37.232 145.536 37.44 145.373 37.544C145.211 37.648 144.94 37.752 144.561 37.752H144.182C144.073 37.752 143.965 37.752 143.748 37.752C143.532 37.752 143.423 37.752 143.315 37.752H141.203C141.094 37.752 140.986 37.752 140.769 37.752C140.607 37.752 140.444 37.752 140.336 37.752H139.036ZM141.257 38.584C141.257 38.428 141.257 38.272 141.257 38.168C141.257 38.064 141.257 37.908 141.257 37.752V36.972H143.369V37.752C143.369 37.908 143.369 38.064 143.369 38.168C143.369 38.272 143.369 38.428 143.369 38.584V44.148C143.207 44.2 142.99 44.2 142.828 44.2C142.665 44.2 142.449 44.2 142.34 44.2C142.16 44.2 141.997 44.2 141.853 44.2C141.69 44.2 141.474 44.148 141.311 44.148V38.584H141.257Z" fill="#F59C1A"/>
<path d="M153.444 38.636C153.444 39 153.336 39.364 153.173 39.624C153.011 39.936 152.794 40.144 152.577 40.352C152.361 40.56 152.09 40.664 151.819 40.768C152.09 40.82 152.252 40.976 152.415 41.184C152.577 41.392 152.686 41.6 152.794 41.86L153.173 42.848C153.227 43.056 153.336 43.212 153.444 43.316C153.552 43.472 153.661 43.576 153.823 43.68C153.661 43.836 153.498 43.94 153.227 44.096C152.939 44.2 152.668 44.252 152.415 44.252C152.036 44.252 151.765 44.148 151.602 43.992C151.44 43.836 151.277 43.524 151.115 43.16L150.627 41.964C150.573 41.756 150.411 41.6 150.302 41.444C150.14 41.288 149.869 41.236 149.544 41.236H148.136V39.832C148.28 39.832 148.497 39.832 148.786 39.832C149.057 39.832 149.273 39.832 149.49 39.832C149.707 39.832 149.869 39.832 149.977 39.832C150.302 39.832 150.573 39.78 150.736 39.676C150.898 39.572 151.061 39.416 151.115 39.26C151.169 39.104 151.223 38.896 151.223 38.688C151.223 38.48 151.169 38.324 151.115 38.116C151.061 37.96 150.898 37.804 150.736 37.7C150.573 37.596 150.302 37.544 149.977 37.544C149.815 37.544 149.707 37.544 149.544 37.544C149.382 37.544 149.219 37.544 149.002 37.544V44.2C148.84 44.252 148.623 44.252 148.461 44.252C148.298 44.252 148.082 44.252 147.973 44.252C147.865 44.252 147.703 44.252 147.486 44.252C147.269 44.252 147.107 44.2 146.944 44.2V36.296L147.053 36.192C147.594 36.192 148.136 36.192 148.678 36.14C149.219 36.14 149.707 36.14 150.194 36.14C150.79 36.14 151.332 36.244 151.819 36.4C152.307 36.556 152.686 36.868 152.957 37.232C153.282 37.6133 153.444 38.0813 153.444 38.636Z" fill="#F59C1A"/>
<path fill-rule="evenodd" clip-rule="evenodd" d="M157.452 36.192C157.615 36.192 157.831 36.14 158.048 36.14C158.265 36.14 158.481 36.14 158.644 36.14C158.806 36.14 159.023 36.14 159.24 36.14C159.456 36.14 159.673 36.192 159.836 36.192L162.652 44.044C162.49 44.096 162.327 44.148 162.111 44.2C161.894 44.252 161.677 44.252 161.461 44.252C161.136 44.252 160.865 44.2 160.702 44.044C160.54 43.888 160.377 43.628 160.215 43.212L159.998 42.484C160.215 42.484 161.244 42.484 161.298 42.484L160.756 41.028C160.702 41.028 159.619 41.028 159.511 41.028L159.294 40.248C159.186 39.936 159.077 39.52 158.915 39.104C158.752 38.688 158.644 38.272 158.536 37.856H158.481C158.427 38.064 158.373 38.324 158.319 38.584C158.265 38.844 158.156 39.104 158.102 39.364C157.994 39.624 157.94 39.884 157.886 40.092L157.561 41.028C157.29 41.028 156.531 41.028 156.477 41.028L155.827 42.484C155.882 42.484 157.019 42.484 157.073 42.484L156.531 44.148C156.423 44.2 156.261 44.2 156.098 44.2C155.918 44.2 155.755 44.2 155.611 44.2C155.448 44.2 155.286 44.2 155.069 44.148C154.852 44.096 154.69 44.096 154.582 44.044L154.527 43.94L157.452 36.192ZM159.456 42.484C159.511 42.484 159.619 42.484 159.673 42.484C159.781 42.484 159.836 42.484 159.944 42.484C159.944 42.484 159.962 42.484 159.998 42.484L159.511 41.028C159.456 41.028 159.348 41.028 159.294 41.028C159.24 41.028 158.156 41.028 158.102 41.028C158.048 41.028 157.94 41.028 157.886 41.028C157.831 41.028 157.777 41.028 157.669 41.028C157.669 41.028 157.633 41.028 157.561 41.028L157.073 42.484C157.109 42.484 157.127 42.484 157.127 42.484C157.181 42.484 157.29 42.484 157.344 42.484C157.452 42.484 159.402 42.484 159.456 42.484Z" fill="#F59C1A"/>
<path d="M168.394 36.192C168.556 36.14 168.719 36.14 168.881 36.14C169.044 36.14 169.206 36.14 169.315 36.14C169.423 36.14 169.585 36.14 169.802 36.192C169.964 36.192 170.181 36.244 170.289 36.296L170.398 36.4L167.906 44.2C167.69 44.2 167.419 44.252 167.094 44.252C166.769 44.252 166.498 44.252 166.227 44.252C165.848 44.252 165.523 44.2 165.306 44.096C165.09 43.992 164.927 43.784 164.819 43.42L162.598 36.4C162.815 36.348 162.977 36.244 163.194 36.192C163.41 36.14 163.627 36.088 163.844 36.088C164.169 36.088 164.385 36.14 164.602 36.296C164.765 36.452 164.927 36.66 164.981 37.024L166.01 40.352C166.065 40.56 166.119 40.82 166.227 41.08C166.335 41.34 166.335 41.548 166.39 41.808C166.444 42.068 166.498 42.276 166.552 42.536C166.552 42.64 166.606 42.692 166.715 42.692L168.394 36.192Z" fill="#F59C1A"/>
<path d="M171.806 36.296L171.914 36.192H173.919V37.752C173.919 37.908 173.919 38.064 173.919 38.168C173.919 38.272 173.919 38.428 173.919 38.584V41.808C173.919 41.964 173.919 42.12 173.919 42.224C173.919 42.328 173.919 42.484 173.919 42.64V44.2H173.052C172.673 44.2 172.402 44.096 172.185 43.888C171.969 43.68 171.86 43.42 171.86 43.108V36.296H171.806ZM177.602 36.192C177.656 36.348 177.656 36.452 177.656 36.608C177.656 36.712 177.656 36.868 177.656 36.972C177.656 37.076 177.656 37.232 177.602 37.336C177.548 37.492 177.548 37.648 177.493 37.752H174.785C174.677 37.752 174.514 37.752 174.298 37.752C174.081 37.752 173.864 37.752 173.648 37.752C173.431 37.752 173.269 37.752 173.106 37.752V36.192H177.602ZM176.789 39.416C176.843 39.52 176.898 39.676 176.898 39.832C176.898 39.988 176.898 40.092 176.898 40.196C176.898 40.3 176.898 40.404 176.898 40.56C176.898 40.716 176.843 40.82 176.789 40.976H174.785C174.677 40.976 174.514 40.976 174.298 40.976C174.081 40.976 173.864 40.976 173.648 40.976C173.431 40.976 173.269 40.976 173.106 40.976V39.52C173.269 39.52 173.431 39.52 173.648 39.52C173.864 39.52 174.081 39.52 174.298 39.52C174.514 39.52 174.677 39.52 174.785 39.52H176.789V39.416ZM177.927 42.64C177.927 43.16 177.818 43.524 177.656 43.784C177.493 44.044 177.114 44.2 176.519 44.2H173.16V42.692C173.431 42.692 173.702 42.692 173.973 42.64C174.244 42.588 174.514 42.64 174.839 42.64H177.927Z" fill="#F59C1A"/>
<path d="M181.773 44.2H180.906C180.527 44.2 180.256 44.096 179.985 43.888C179.768 43.68 179.66 43.42 179.66 43.108V36.192L179.768 36.14H180.527C180.906 36.14 181.231 36.244 181.448 36.4C181.664 36.608 181.773 36.868 181.773 37.284V44.2ZM185.293 42.588C185.293 43.1427 185.185 43.5587 184.968 43.836C184.752 44.096 184.372 44.2 183.831 44.2H180.852L179.714 42.848C180.31 42.744 180.852 42.692 181.448 42.64C181.989 42.588 182.531 42.588 183.018 42.588H185.293Z" fill="#F59C1A"/>
<path d="M186.106 43.472C186.106 43.212 186.214 42.952 186.377 42.692C186.539 42.432 186.702 42.224 186.918 42.068C187.297 42.276 187.731 42.432 188.164 42.588C188.597 42.744 189.085 42.848 189.572 42.848C189.952 42.848 190.222 42.744 190.385 42.588C190.547 42.432 190.656 42.224 190.656 42.068C190.656 41.964 190.601 41.808 190.493 41.652C190.385 41.496 190.168 41.34 189.789 41.184L188.218 40.612C187.677 40.404 187.243 40.144 186.864 39.78C186.485 39.416 186.322 39 186.322 38.428C186.322 37.96 186.485 37.492 186.756 37.128C187.027 36.764 187.406 36.452 187.893 36.296C188.399 36.088 188.94 35.984 189.518 35.984C190.168 35.984 190.71 36.036 191.251 36.192C191.793 36.348 192.226 36.504 192.606 36.66C192.606 36.92 192.497 37.18 192.389 37.44C192.281 37.6827 192.118 37.8907 191.901 38.064C191.576 37.908 191.197 37.804 190.71 37.7C190.277 37.596 189.843 37.544 189.518 37.544C189.139 37.544 188.868 37.596 188.706 37.752C188.543 37.908 188.489 38.064 188.489 38.22C188.489 38.376 188.543 38.48 188.652 38.636C188.76 38.74 188.977 38.844 189.247 39L190.872 39.572C191.306 39.728 191.685 39.936 191.956 40.144C192.226 40.352 192.497 40.612 192.606 40.924C192.768 41.236 192.822 41.548 192.822 41.86C192.822 42.328 192.714 42.744 192.443 43.16C192.172 43.524 191.793 43.836 191.306 44.044C190.836 44.252 190.186 44.356 189.356 44.356C188.814 44.356 188.272 44.304 187.677 44.148C187.135 43.94 186.593 43.732 186.106 43.472Z" fill="#F59C1A"/>
<path d="M198.564 44.2H198.076C197.86 44.2 197.697 44.148 197.589 44.044C197.48 43.94 197.426 43.784 197.426 43.628V39.832L197.48 39.78H197.914C198.13 39.78 198.293 39.832 198.401 39.936C198.51 40.04 198.564 40.196 198.564 40.456V44.2ZM200.514 43.316C200.514 43.628 200.46 43.888 200.351 43.992C200.243 44.148 200.026 44.2 199.755 44.2H198.13L197.48 43.472C197.805 43.42 198.13 43.368 198.401 43.368C198.672 43.368 198.997 43.316 199.268 43.316H200.514Z" fill="#F59C1A"/>
<path d="M202.572 44.2H202.085C201.868 44.2 201.705 44.148 201.597 44.044C201.489 43.94 201.435 43.784 201.435 43.628V39.832L201.489 39.78H201.922C202.139 39.78 202.301 39.832 202.41 39.936C202.518 40.04 202.572 40.196 202.572 40.456V44.2ZM204.522 43.316C204.522 43.628 204.468 43.888 204.359 43.992C204.251 44.148 204.034 44.2 203.764 44.2H202.139L201.489 43.472C201.814 43.42 202.139 43.368 202.41 43.368C202.68 43.368 203.005 43.316 203.276 43.316H204.522Z" fill="#F59C1A"/>
<path d="M207.88 41.496C207.88 41.34 207.88 41.132 207.826 40.976C207.772 40.82 207.718 40.716 207.609 40.612C207.501 40.508 207.339 40.456 207.122 40.456C206.797 40.456 206.58 40.56 206.472 40.82C206.364 41.08 206.255 41.444 206.255 41.912C206.255 42.38 206.364 42.692 206.526 42.952C206.689 43.16 206.959 43.316 207.284 43.316C207.555 43.316 207.772 43.264 207.989 43.16C208.205 43.056 208.368 42.952 208.53 42.848C208.639 42.8827 208.747 42.9867 208.855 43.16C208.964 43.316 209.018 43.42 209.072 43.524C208.909 43.628 208.747 43.784 208.53 43.888C208.314 43.992 208.097 44.096 207.826 44.148C207.555 44.2 207.339 44.252 207.068 44.252C206.689 44.252 206.364 44.2 206.093 44.044C205.822 43.888 205.605 43.732 205.497 43.524C205.334 43.316 205.226 43.056 205.172 42.796C205.118 42.536 205.064 42.276 205.064 41.964C205.064 41.444 205.172 40.976 205.334 40.664C205.497 40.352 205.768 40.092 206.093 39.936C206.418 39.78 206.743 39.676 207.176 39.676C207.573 39.676 207.898 39.728 208.151 39.832C208.44 39.936 208.657 40.092 208.801 40.3C208.964 40.508 209.018 40.716 209.018 40.976C209.018 41.184 208.964 41.34 208.855 41.392C208.747 41.496 208.584 41.548 208.368 41.548C208.259 41.548 208.205 41.548 208.151 41.548C207.989 41.548 207.934 41.548 207.88 41.496Z" fill="#F59C1A"/>
<path fill-rule="evenodd" clip-rule="evenodd" d="M104.804 13.728C104.804 17.784 104.804 20.956 104.804 23.192C104.804 24.8907 104.804 26.0867 104.804 26.78C104.804 27.092 104.533 27.352 104.262 27.352C103.72 27.404 102.799 27.456 101.5 27.56C99.7662 27.716 97.9788 27.768 96.083 27.768C94.7289 27.768 93.1581 27.664 91.4789 27.404C89.6373 27.144 88.1207 26.78 86.929 26.208C85.4124 25.532 84.1666 24.544 83.3 23.4C82.4875 22.308 82.0542 21.06 82 19.604C82.0542 18.044 82.5417 16.692 83.4083 15.548C84.3291 14.3 85.7916 13.312 87.7957 12.532C89.0957 12.012 90.7748 11.596 92.7247 11.284C93.8622 11.128 94.8913 10.972 95.9205 10.868C97.383 10.712 98.3579 10.66 98.8454 10.66C99.0079 10.66 99.1704 10.504 99.1162 10.296C98.2496 5.66799 92.0747 5.61599 92.0747 5.61599C91.4248 5.61599 90.7206 5.56399 89.9081 5.56399C89.6915 5.56399 89.4206 5.56399 89.204 5.56399C89.1498 5.56399 89.0415 5.56399 88.9332 5.56399C87.904 5.56399 86.9832 5.56399 86.2791 5.61599C85.5749 5.61599 85.0874 5.04399 85.1416 4.36799L85.5207 1.03999C85.5749 0.623993 85.8999 0.311993 86.2791 0.311993C86.5499 0.259993 86.8207 0.259993 87.1999 0.259993C87.7957 0.207993 88.554 0.207993 89.529 0.207993C92.2914 0.207993 94.6205 0.467993 96.4621 0.987993C98.3579 1.50799 99.9829 2.33999 101.283 3.53599C102.474 4.62799 103.341 5.92799 103.883 7.48799C104.424 9.04799 104.695 11.076 104.804 13.728ZM98.7371 14.352C88.1748 14.404 87.579 18.252 87.5249 18.876C87.5249 19.136 87.579 19.448 87.6332 19.76C88.8248 24.128 96.6788 23.556 98.6829 23.296C98.9537 23.244 99.1704 22.984 99.1704 22.724V14.716C99.1704 14.508 98.9537 14.352 98.7371 14.352Z" fill="#011160"/>
<path d="M180.527 11.96V14.924V15.444V18.928V19.656V22.828V27.664H177.764C177.548 27.664 177.385 27.664 177.223 27.612C176.681 27.508 176.139 27.248 175.706 26.832C175.056 26.26 174.731 25.584 174.731 24.752V22.932V19.708V18.928V15.444V14.924V12.948C174.731 11.5267 174.623 10.3307 174.406 9.36C174.189 8.372 173.864 7.592 173.431 6.968C172.998 6.344 172.348 5.876 171.589 5.616C170.831 5.356 169.91 5.2 168.881 5.2C168.556 5.148 168.231 5.148 167.852 5.148C167.058 5.148 166.191 5.2 165.252 5.304C164.385 5.408 163.681 5.512 163.248 5.564V14.924V15.444V18.928V19.292V27.664H157.452V19.292V18.876V15.392V14.872V1.404C158.752 1.092 160.377 0.78 162.436 0.468C164.44 0.156 166.715 0 169.206 0C169.531 0 169.802 0 170.073 0C171.698 0.104 173.052 0.416 174.244 0.832C175.814 1.404 177.06 2.236 177.981 3.276C178.902 4.316 179.552 5.616 179.931 7.072C180.31 8.528 180.473 10.14 180.527 11.96Z" fill="#011160"/>
<path d="M124.899 0.208002V5.304C124.899 5.356 124.845 5.46 124.736 5.46H124.466H122.895H122.407C120.674 5.46 119.374 5.876 118.562 6.708C117.749 7.488 117.316 8.788 117.316 10.556V11.388V23.244V23.296C117.316 26.312 114.824 27.612 111.737 27.716C111.574 27.768 111.466 27.612 111.466 27.508V23.452V22.62V22.048V12.116C111.466 9.828 111.791 7.904 112.495 6.344C113.145 4.784 114.12 3.536 115.312 2.6C116.449 1.716 117.803 1.092 119.32 0.676001C120.837 0.260001 122.407 0.052002 124.032 0.052002H124.466H124.736C124.845 0.052002 124.899 0.104002 124.899 0.208002Z" fill="#011160"/>
<path fill-rule="evenodd" clip-rule="evenodd" d="M209.18 13.728C209.18 17.784 209.18 20.956 209.18 23.192C209.18 24.8907 209.18 26.0867 209.18 26.78C209.18 27.092 208.909 27.352 208.639 27.352C208.097 27.404 207.176 27.456 205.876 27.56C204.143 27.716 202.355 27.768 200.46 27.768C199.105 27.768 197.535 27.664 195.856 27.404C194.014 27.144 192.497 26.78 191.306 26.208C189.789 25.532 188.543 24.544 187.677 23.4C186.864 22.308 186.431 21.06 186.377 19.604C186.431 18.044 186.918 16.692 187.785 15.548C188.706 14.3 190.168 13.312 192.172 12.532C193.472 12.012 195.151 11.596 197.101 11.284C198.239 11.128 199.268 10.972 200.297 10.868C201.76 10.712 202.735 10.66 203.222 10.66C203.385 10.66 203.547 10.504 203.493 10.296C202.626 5.66799 196.451 5.61599 196.451 5.61599C195.801 5.61599 195.097 5.56399 194.285 5.56399C194.068 5.56399 193.797 5.56399 193.581 5.56399C193.526 5.56399 193.418 5.56399 193.31 5.56399C192.281 5.56399 191.36 5.56399 190.656 5.61599C189.951 5.61599 189.464 5.04399 189.518 4.36799L189.897 1.03999C189.951 0.623993 190.276 0.311993 190.656 0.311993C190.926 0.259993 191.197 0.259993 191.576 0.259993C192.172 0.207993 192.931 0.207993 193.906 0.207993C196.668 0.207993 198.997 0.467993 200.839 0.987993C202.735 1.50799 204.359 2.33999 205.659 3.53599C206.851 4.62799 207.718 5.92799 208.259 7.48799C208.801 9.04799 209.072 11.076 209.18 13.728ZM203.06 14.352C192.497 14.404 191.901 18.252 191.847 18.876C191.847 19.136 191.901 19.448 191.956 19.76C193.147 24.128 201.001 23.556 203.005 23.296C203.276 23.244 203.493 22.984 203.493 22.724V14.716C203.493 14.508 203.33 14.352 203.06 14.352Z" fill="#011160"/>
<path fill-rule="evenodd" clip-rule="evenodd" d="M151.494 13.936C151.494 14.248 151.494 14.612 151.494 15.028C151.44 15.236 151.44 15.444 151.44 15.6C151.44 15.86 151.169 16.12 150.844 16.12H133.295C133.295 16.12 133.349 16.744 133.565 17.576C133.62 17.784 133.728 17.992 133.782 18.2V18.252C134.811 21.06 138.061 25.168 148.515 21.788C148.786 21.684 149.057 21.84 149.111 22.1L149.707 25.428C149.815 25.896 149.544 26.364 149.057 26.52C148.84 26.572 148.623 26.676 148.407 26.728C147.829 26.8667 147.125 27.0227 146.294 27.196C145.536 27.352 144.669 27.456 143.748 27.56C142.954 27.664 142.142 27.716 141.311 27.716C139.09 27.664 137.14 27.352 135.461 26.728C133.674 26.052 132.157 25.116 131.02 23.92C129.828 22.7413 128.961 21.3373 128.42 19.708C127.824 18.096 127.553 16.328 127.553 14.404C127.553 12.116 127.932 10.192 128.636 8.476C129.34 6.812 130.315 5.408 131.507 4.264C132.699 3.12 134.053 2.288 135.624 1.716C137.086 1.196 138.549 0.936003 140.011 0.884003C143.586 0.988003 146.403 2.08 148.461 4.16C150.573 6.344 151.657 9.62 151.494 13.936ZM145.265 11.752H146.132C146.132 11.752 146.186 11.752 146.186 11.7C146.186 10.92 146.023 10.192 145.807 9.464C145.536 8.736 145.211 8.06 144.723 7.54C144.507 7.332 144.29 7.124 144.019 6.916C144.019 6.864 143.965 6.864 143.965 6.864C143.64 6.656 143.315 6.448 142.936 6.292H142.882C140.065 4.94 137.574 6.032 136.544 6.604C136.274 6.812 136.111 6.916 136.111 6.916C135.786 7.176 135.515 7.436 135.245 7.696C134.703 8.268 134.324 8.892 134.053 9.62C133.728 10.296 133.565 11.024 133.457 11.752C133.457 11.804 133.511 11.804 133.511 11.804H145.265V11.752Z" fill="#011160"/>
<path d="M44.091 30.212H57.524C58.0657 30.212 58.5531 30.472 58.824 30.94L66.2446 43.316C66.8404 44.304 66.0821 45.604 64.8905 45.604H53.0283C52.3783 45.604 51.7825 45.292 51.4575 44.72L43.4952 31.252C43.1702 30.784 43.4952 30.212 44.091 30.212Z" fill="#F59C1A"/>
<path d="M19.8791 37.648L16.7375 42.9C15.8167 44.46 14.1376 45.396 12.296 45.396H0.487903C0.108746 45.396 -0.107909 45.032 0.0545874 44.72L24.9706 3.016C26.0539 1.144 28.1664 0 30.3872 0L41.4911 0.0520002C41.8702 0.0520002 42.0869 0.416 41.9244 0.728L30.3872 20.072C30.2788 20.124 30.1705 20.176 30.1163 20.228C29.1414 20.852 27.4622 24.024 26.7581 25.168C25.7831 25.376 20.3666 25.948 18.6875 26.104C17.875 26.208 17.9833 26.104 17.7125 26.676C17.4958 26.988 17.3333 27.248 17.1708 27.56C18.6875 28.08 23.5623 28.496 24.4832 29.016C23.9415 30.264 22.479 32.448 21.7207 34.008C20.9624 35.776 21.5582 35.1 19.6624 35.724C17.55 36.452 17.7125 36.192 17.4417 37.44C18.3625 37.388 19.175 37.492 19.8791 37.648Z" fill="#011160"/>
<path d="M38.3495 14.612H50.2117C50.5908 14.612 50.8617 15.028 50.645 15.34L33.9079 43.42C33.1496 44.72 31.6871 45.5 30.1705 45.5L17.0625 45.552L21.2332 38.584C21.8291 39.052 22.3707 39.676 22.8582 40.508C24.0498 39.884 23.5623 39.26 23.2915 37.856C22.7499 35.36 22.9124 36.972 25.2956 32.708C25.8373 31.876 26.2706 31.096 26.7581 30.264C27.1372 30.628 27.6789 31.148 28.0039 31.616L30.4413 34.424C30.8205 34.892 31.2538 35.36 31.6871 35.776C31.8496 35.62 32.4454 34.632 32.4454 34.476C32.4996 34.008 29.7372 28.132 29.358 27.248C28.9789 26.468 28.8705 26.676 29.3039 25.948C30.1705 24.492 31.633 22.62 31.7413 21.112L34.2871 16.848C35.1537 15.444 36.7245 14.56 38.3495 14.612Z" fill="#011160"/>
</svg>
